# Blender 5.0.1
# www.blender.org
mtllib spg62.mtl
o SPG62_antenna
v -0.281832 1.610229 1.467972
v 0.000000 1.579573 1.488869
v 0.000000 1.296799 1.717438
v 0.000000 1.343182 1.785469
v -0.375626 1.337660 1.689583
v -0.375626 1.384041 1.757614
v -0.725654 1.457455 1.607910
v -0.725654 1.503838 1.675941
v -1.026230 1.648020 1.477989
v -1.026230 1.694401 1.546013
v -1.256870 1.896366 1.308662
v -1.256870 1.942749 1.376694
v -1.401856 2.185574 1.111488
v -1.401857 2.231956 1.179520
v -1.451309 2.495932 0.899895
v -1.451309 2.542315 0.967926
v -1.401857 2.806290 0.688293
v -1.401857 2.852673 0.756325
v -1.256871 3.095497 0.491119
v -1.256871 3.141880 0.559151
v -1.026231 3.343845 0.321800
v -1.026231 3.390226 0.389832
v -0.725656 3.534409 0.191879
v -0.725655 3.580791 0.259911
v -0.375628 3.654202 0.110207
v -0.375628 3.700584 0.178238
v -0.000002 3.695061 0.082352
v -0.000002 3.741444 0.150383
v 0.375624 3.654202 0.110207
v 0.375625 3.700584 0.178238
v 0.725652 3.534409 0.191877
v 0.725653 3.580791 0.259909
v 1.026228 3.343843 0.321798
v 1.026228 3.390226 0.389830
v 1.256869 3.095495 0.491117
v 1.256869 3.141878 0.559149
v 1.401855 2.806288 0.688292
v 1.401855 2.852671 0.756323
v 1.451308 2.495930 0.899893
v 1.451308 2.542313 0.967924
v 1.401856 2.185574 1.111486
v 1.401856 2.231956 1.179518
v 1.256870 1.896366 1.308661
v 1.256870 1.942749 1.376692
v 1.026230 1.648018 1.477980
v 1.026230 1.694401 1.546011
v 0.725655 1.457455 1.607908
v 0.725655 1.503838 1.675940
v 0.375627 1.337660 1.689581
v 0.375627 1.384041 1.757612
v -0.544457 1.700109 1.406693
v -0.769978 1.843092 1.309212
v -0.943027 2.029427 1.182167
v -1.051810 2.246418 1.034225
v -1.088914 2.479280 0.875465
v -1.051811 2.712141 0.716705
v -0.943028 2.929132 0.568764
v -0.769979 3.115467 0.441727
v -0.544458 3.258446 0.344246
v -0.281833 3.348326 0.282967
v -0.000001 3.378983 0.262062
v 0.281830 3.348326 0.282967
v 0.544455 3.258446 0.344246
v 0.769977 3.115465 0.441725
v 0.943026 2.929131 0.568762
v 1.051808 2.712139 0.716703
v 1.088912 2.479279 0.875463
v 1.051809 2.246418 1.034224
v 0.943027 2.029427 1.182165
v 0.769978 1.843090 1.309210
v 0.544457 1.700111 1.406691
v 0.281832 1.610229 1.467970
v -0.170245 1.899363 1.152779
v 0.000000 1.880844 1.165405
v -0.328889 1.953657 1.115761
v -0.465118 2.040026 1.056877
v -0.569651 2.152584 0.980133
v -0.635364 2.283661 0.890770
v -0.657777 2.424326 0.794868
v -0.635364 2.564989 0.698967
v -0.569652 2.696066 0.609596
v -0.465119 2.808624 0.532860
v -0.328889 2.894995 0.473976
v -0.170246 2.949289 0.436958
v -0.000001 2.967808 0.424332
v 0.170244 2.949289 0.436958
v 0.328887 2.894995 0.473976
v 0.465117 2.808624 0.532860
v 0.569650 2.696066 0.609594
v 0.635362 2.564991 0.698965
v 0.657776 2.424328 0.794867
v 0.635363 2.283665 0.890768
v 0.569651 2.152584 0.980131
v 0.465118 2.040026 1.056875
v 0.328888 1.953657 1.115759
v 0.170245 1.899363 1.152779
v -0.055158 2.212658 0.849831
v -0.000001 2.206657 0.853920
v -0.106556 2.230247 0.837837
v -0.150693 2.258232 0.818756
v -0.184561 2.294699 0.793900
v -0.205851 2.337166 0.764946
v -0.213112 2.382740 0.733871
v -0.205851 2.428312 0.702797
v -0.184561 2.470779 0.673843
v -0.150693 2.507248 0.648987
v -0.106557 2.535231 0.629906
v -0.055158 2.552822 0.617912
v -0.000001 2.558821 0.613823
v 0.055156 2.552822 0.617912
v 0.106555 2.535231 0.629906
v 0.150692 2.507248 0.648987
v 0.184559 2.470779 0.673843
v 0.205849 2.428312 0.702797
v 0.213111 2.382740 0.733871
v 0.205849 2.337166 0.764938
v 0.184559 2.294699 0.793892
v 0.150692 2.258232 0.818756
v 0.106555 2.230247 0.837837
v 0.055157 2.212658 0.849831
v -0.000001 2.368460 0.712929
v 0.547225 1.592911 1.257963
v 0.773892 1.736618 1.159986
v 0.947820 1.923901 1.032301
v 1.057155 2.141994 0.883612
v 1.094447 2.376040 0.724043
v 1.057155 2.610085 0.564474
v 0.947819 2.828178 0.415785
v 0.773890 3.015461 0.288092
v 0.547223 3.159168 0.190117
v 0.283262 3.249504 0.128532
v -0.000002 3.280317 0.107529
v -0.283266 3.249504 0.128532
v -0.547225 3.159166 0.190125
v -0.773893 3.015463 0.288101
v -0.947821 2.828180 0.415787
v -1.057157 2.610086 0.564476
v -1.094449 2.376041 0.724045
v -1.057156 2.141996 0.883614
v -0.947820 1.923903 1.032303
v -0.773892 1.736620 1.159988
v -0.547224 1.592911 1.257965
v -0.283264 1.502573 1.319557
v 0.000000 1.471762 1.340561
v 0.283265 1.502575 1.319555
v 0.337046 1.827393 0.955648
v 0.476656 1.915905 0.895300
v 0.583781 2.031256 0.816656
v 0.651123 2.165586 0.725073
v 0.674092 2.309740 0.626791
v 0.651123 2.453892 0.528509
v 0.583781 2.588221 0.436926
v 0.476655 2.703569 0.358282
v 0.337045 2.792082 0.297943
v 0.174467 2.847723 0.260010
v -0.000001 2.866701 0.247070
v -0.174469 2.847723 0.260010
v -0.337048 2.792082 0.297943
v -0.476657 2.703569 0.358284
v -0.583783 2.588219 0.436935
v -0.651125 2.453890 0.528511
v -0.674094 2.309738 0.626793
v -0.651125 2.165585 0.725075
v -0.583782 2.031256 0.816658
v -0.476656 1.915905 0.895302
v -0.337047 1.827393 0.955650
v -0.174469 1.771751 0.993584
v 0.000000 1.752773 1.006523
v 0.174468 1.771751 0.993584
v 0.121622 2.099823 0.692863
v 0.172000 2.131763 0.671089
v 0.210657 2.173388 0.642708
v 0.234957 2.221859 0.609665
v 0.243245 2.273876 0.574196
v 0.234957 2.325893 0.538734
v 0.210656 2.374367 0.505684
v 0.172000 2.415991 0.477303
v 0.121622 2.447929 0.455528
v 0.062956 2.468008 0.441841
v -0.000001 2.474857 0.437172
v -0.062958 2.468008 0.441841
v -0.121624 2.447929 0.455528
v -0.172002 2.415991 0.477310
v -0.210658 2.374367 0.505684
v -0.234958 2.325893 0.538734
v -0.243247 2.273876 0.574196
v -0.234958 2.221859 0.609665
v -0.210658 2.173386 0.642708
v -0.172002 2.131763 0.671089
v -0.121624 2.099823 0.692863
v -0.062957 2.079744 0.706551
v -0.000001 2.072897 0.711220
v 0.062956 2.079744 0.706551
v 0.435255 2.317120 0.107740
v 0.075851 3.804331 0.078117
v 0.075852 4.082514 0.643211
v 0.075851 3.719212 0.120026
v 0.075852 3.997395 0.685112
v -0.075855 3.804331 0.078117
v -0.075854 4.082514 0.643211
v -0.075855 3.719212 0.120026
v -0.075854 3.997395 0.685112
v 0.050145 4.145786 0.771744
v 0.050145 4.060665 0.813644
v -0.050148 4.060665 0.813644
v -0.050148 4.145786 0.771744
v 0.050146 4.542442 1.577507
v 0.050146 4.478653 1.662735
v -0.050147 4.478653 1.662735
v -0.050147 4.542442 1.577507
v -0.050147 4.512486 1.516647
v 0.050146 4.512486 1.516647
v 0.050146 4.445511 1.595406
v -0.050147 4.445511 1.595406
v 0.050146 4.399151 1.761307
v -0.050147 4.399151 1.761307
v 0.050146 4.366009 1.693977
v -0.050147 4.366009 1.693977
v 0.050146 4.352766 1.784134
v -0.050147 4.352766 1.784134
v 0.050146 4.319624 1.716812
v -0.050147 4.319624 1.716812
v 0.109086 4.317987 1.558380
v -0.109087 4.317987 1.558380
v 0.109086 4.205177 1.613914
v -0.109087 4.205177 1.613914
v 0.435255 2.046680 -0.186243
v 0.435255 2.591198 0.399229
v 0.435255 1.832468 -0.040194
v 0.435255 2.094299 0.738005
v -0.435257 2.046680 -0.186241
v -0.435257 2.599236 0.411018
v -0.435257 1.832468 -0.040192
v -0.435257 2.094299 0.738007
v 0.435255 1.871655 0.411444
v -0.435257 1.871655 0.411446
v -0.435257 2.317120 0.107742
v 0.145084 1.871655 0.411446
v -0.145086 1.871655 0.411446
v -0.145087 2.317120 0.107742
v 0.145084 2.317120 0.107742
v -0.145087 1.832468 -0.040192
v 0.145084 1.832468 -0.040192
v 0.145085 2.094299 0.738007
v -0.145086 2.094299 0.738007
v 0.145084 2.046680 -0.186241
v -0.145087 2.046680 -0.186241
v -0.145086 2.599236 0.411018
v 0.145084 2.591198 0.399231
v 0.145084 2.814081 0.274689
v 0.145084 2.527241 -0.035522
v -0.145086 2.814081 0.274689
v -0.145087 2.527241 -0.035522
v 0.075851 3.627945 -0.013840
v 0.075851 3.713064 -0.055740
v -0.075855 3.627945 -0.013840
v -0.075855 3.713064 -0.055740
v -0.075855 3.273127 0.109352
v 0.075851 3.273127 0.109352
v -0.075855 3.181860 -0.024506
v 0.075851 3.181860 -0.024506
v -0.075855 2.878048 0.378708
v 0.075852 2.878048 0.378708
v -0.075855 2.786781 0.244843
v 0.075851 2.786781 0.244843
v -0.385574 2.503941 0.306046
v -0.385574 2.327190 0.116035
v -0.203778 2.327190 0.116035
v -0.203778 2.503941 0.306046
v -0.203778 2.802589 0.102432
v -0.203778 2.658064 -0.109550
v -0.385574 2.802589 0.102432
v -0.385575 2.658064 -0.109550
v 0.051037 3.210028 -0.078430
v 0.095919 3.195431 -0.099838
v -0.000001 2.330534 0.521736
v -0.000001 3.169279 -0.050102
v -0.048116 2.325756 0.514725
v -0.048116 3.164501 -0.057106
v -0.090427 2.311995 0.494545
v -0.090428 3.150740 -0.077293
v -0.121832 2.290911 0.463623
v -0.121832 3.129656 -0.108215
v -0.138542 2.265049 0.425690
v -0.138543 3.103794 -0.146149
v -0.138542 2.237526 0.385323
v -0.138543 3.076271 -0.186516
v -0.121832 2.211664 0.347389
v -0.121832 3.050409 -0.224449
v -0.090427 2.190582 0.316460
v -0.090428 3.029327 -0.255371
v -0.048116 2.176821 0.296280
v -0.048116 3.015566 -0.275558
v -0.000001 2.172041 0.289268
v -0.000001 3.010786 -0.282570
v 0.048114 2.176821 0.296280
v 0.048113 3.015566 -0.275558
v 0.090425 2.190582 0.316460
v 0.090425 3.029327 -0.255371
v 0.121830 2.211664 0.347389
v 0.121830 3.050409 -0.224449
v 0.138540 2.237526 0.385323
v 0.138540 3.076271 -0.186516
v 0.138540 2.265049 0.425690
v 0.138540 3.103794 -0.146149
v 0.121830 2.290911 0.463623
v 0.121830 3.129656 -0.108215
v 0.090426 2.311995 0.494545
v 0.090425 3.150740 -0.077293
v 0.048114 2.325756 0.514725
v 0.048114 3.164501 -0.057106
v 0.129232 3.173065 -0.132637
v 0.146957 3.145634 -0.172882
v 0.146957 3.116438 -0.215698
v 0.129232 3.089005 -0.255936
v 0.095919 3.066641 -0.288742
v 0.051037 3.052044 -0.310150
v -0.000001 3.046974 -0.317589
v -0.051040 3.052044 -0.310150
v -0.095922 3.066641 -0.288742
v -0.129235 3.089005 -0.255936
v -0.146960 3.116438 -0.215698
v -0.146960 3.145634 -0.172882
v -0.129235 3.173065 -0.132637
v -0.095922 3.195431 -0.099838
v -0.051039 3.210028 -0.078430
v -0.000001 3.215097 -0.070992
v -0.000001 3.237623 -0.037949
v -0.064717 3.231195 -0.047379
v -0.121626 3.212687 -0.074524
v -0.163866 3.184330 -0.116119
v -0.186342 3.149544 -0.167145
v -0.186342 3.112526 -0.221436
v -0.163866 3.077742 -0.272461
v -0.121626 3.049385 -0.314049
v -0.064717 3.030876 -0.341194
v -0.000002 3.024448 -0.350624
v 0.064714 3.030876 -0.341194
v 0.121624 3.049385 -0.314049
v 0.163863 3.077742 -0.272461
v 0.186339 3.112526 -0.221436
v 0.186339 3.149544 -0.167145
v 0.163864 3.184330 -0.116119
v 0.121624 3.212687 -0.074524
v 0.064714 3.231195 -0.047379
v 0.064714 3.190193 -0.019424
v 0.121624 3.171684 -0.046570
v 0.163864 3.143326 -0.088165
v 0.186339 3.108541 -0.139183
v 0.186339 3.071524 -0.193481
v 0.163863 3.036739 -0.244499
v 0.121624 3.008381 -0.286095
v 0.064714 2.989874 -0.313240
v -0.000001 2.983444 -0.322670
v -0.064717 2.989874 -0.313240
v -0.121626 3.008381 -0.286095
v -0.163866 3.036739 -0.244499
v -0.186342 3.071524 -0.193481
v -0.186342 3.108541 -0.139183
v -0.163866 3.143326 -0.088165
v -0.121626 3.171684 -0.046570
v -0.064717 3.190193 -0.019424
v -0.000001 3.196621 -0.009995
v 0.051037 3.302814 -0.141685
v 0.095919 3.288216 -0.163101
v 0.129232 3.265852 -0.195900
v 0.146957 3.238419 -0.236137
v 0.146957 3.209225 -0.278961
v 0.129232 3.181791 -0.319199
v 0.095919 3.159428 -0.351997
v 0.051037 3.144829 -0.373413
v -0.000002 3.139759 -0.380844
v -0.051040 3.144829 -0.373413
v -0.095922 3.159428 -0.351997
v -0.129235 3.181791 -0.319199
v -0.146960 3.209225 -0.278961
v -0.146960 3.238419 -0.236137
v -0.129235 3.265852 -0.195900
v -0.095922 3.288216 -0.163101
v -0.051040 3.302814 -0.141685
v -0.000001 3.307882 -0.134254
v -0.252052 3.036739 -0.244499
v -0.252052 3.071524 -0.193481
v -0.252052 3.112526 -0.221436
v -0.252052 3.149544 -0.167145
v -0.252052 3.108541 -0.139183
v -0.252052 3.077742 -0.272461
v -1.379183 2.505400 0.926041
v -0.032427 4.434229 1.446838
v -1.385454 2.515478 0.904922
v -0.038698 4.444309 1.425720
v -1.372063 2.511471 0.885139
v -0.025307 4.440300 1.405937
v -1.352401 2.497383 0.886475
v -0.005645 4.426212 1.407272
v -1.346130 2.487303 0.907585
v 0.000626 4.416134 1.428383
v -1.359521 2.491312 0.927376
v -0.012765 4.420141 1.448174
v 1.379181 2.505398 0.926039
v 0.032426 4.434229 1.446838
v 1.385452 2.515476 0.904921
v 0.038697 4.444309 1.425720
v 1.372061 2.511469 0.885138
v 0.025306 4.440300 1.405937
v 1.352399 2.497381 0.886473
v 0.005644 4.426212 1.407272
v 1.346128 2.487301 0.907583
v -0.000627 4.416134 1.428383
v 1.359519 2.491310 0.927374
v 0.012764 4.420141 1.448174
v -0.723950 1.971502 0.174919
v -0.922470 1.971504 0.174919
v -0.723950 1.900896 0.115677
v -0.922470 1.900898 0.115677
v -0.723950 1.884892 0.024902
v -0.922470 1.884893 0.024902
v -0.723950 1.930977 -0.054916
v -0.922470 1.930979 -0.054916
v -0.723950 2.017588 -0.086441
v -0.922470 2.017590 -0.086441
v -0.723950 2.104197 -0.054916
v -0.922470 2.104198 -0.054916
v -0.723950 2.150282 0.024902
v -0.922470 2.150284 0.024902
v -0.723950 2.134277 0.115677
v -0.922470 2.134279 0.115677
v -0.723950 2.063671 0.174919
v -0.922470 2.063673 0.174919
v 0.925303 1.971502 0.174917
v 0.726784 1.971502 0.174917
v 0.925303 1.900896 0.115675
v 0.726783 1.900896 0.115675
v 0.925303 1.884892 0.024900
v 0.726783 1.884892 0.024900
v 0.925303 1.930977 -0.054918
v 0.726784 1.930977 -0.054918
v 0.925303 2.017588 -0.086443
v 0.726784 2.017588 -0.086443
v 0.925303 2.104197 -0.054918
v 0.726784 2.104197 -0.054918
v 0.925303 2.150282 0.024900
v 0.726784 2.150282 0.024900
v 0.925303 2.134277 0.115675
v 0.726784 2.134277 0.115675
v 0.925303 2.063671 0.174917
v 0.726784 2.063671 0.174917
vn 0.1305 0.7306 0.6702
vn 0.0676 0.7521 0.6556
vn 0.0504 0.7079 0.7045
vn 0.0973 0.6918 0.7155
vn -0.1846 0.6963 0.6936
vn -0.2261 0.6516 0.7241
vn -0.1686 0.6330 0.7556
vn -0.1376 0.6663 0.7329
vn -0.0000 -0.8262 0.5633
vn -0.2588 -0.7981 0.5441
vn 0.0504 0.3972 0.9163
vn 0.0973 0.4133 0.9054
vn 0.0714 0.4553 0.8875
vn 0.0370 0.4435 0.8955
vn -0.0764 0.3028 0.9500
vn -0.0000 0.2945 0.9557
vn -0.0000 0.3281 0.9446
vn -0.0676 0.3355 0.9396
vn -0.5000 -0.7155 0.4879
vn 0.2261 0.4359 0.8711
vn 0.2521 0.4880 0.8357
vn 0.1880 0.5109 0.8388
vn 0.1686 0.4721 0.8653
vn 0.1475 0.3271 0.9334
vn 0.2086 0.3659 0.9070
vn 0.1846 0.3913 0.9016
vn 0.1305 0.3570 0.9249
vn -0.7071 -0.5842 0.3983
vn 0.0676 0.3355 0.9396
vn 0.2850 0.4751 0.8325
vn 0.2950 0.5382 0.7895
vn 0.2610 0.5438 0.7976
vn -0.8660 -0.4131 0.2817
vn -0.1305 0.3570 0.9249
vn -0.0504 0.3972 0.9163
vn -0.0973 0.4133 0.9054
vn 0.2555 0.6601 0.7064
vn 0.2086 0.7106 0.6719
vn 0.1846 0.6963 0.6936
vn 0.2261 0.6516 0.7241
vn -0.9659 -0.2139 0.1458
vn -0.2521 0.4880 0.8357
vn -0.2261 0.4359 0.8711
vn -0.1686 0.4721 0.8653
vn -0.1880 0.5109 0.8388
vn 0.0764 0.7737 0.6289
vn -0.0000 0.7820 0.6233
vn -0.0000 0.7595 0.6505
vn -1.0000 -0.0000 -0.0000
vn -0.2521 0.5996 0.7595
vn -0.1880 0.5942 0.7821
vn -0.0764 0.7737 0.6289
vn -0.1475 0.7494 0.6455
vn -0.1305 0.7306 0.6702
vn -0.0676 0.7521 0.6556
vn -0.9659 0.2138 -0.1458
vn -0.0973 0.6918 0.7155
vn -0.0504 0.7079 0.7045
vn -0.2555 0.6601 0.7064
vn -0.2850 0.6013 0.7464
vn -0.8660 0.4131 -0.2817
vn -0.0000 0.7134 0.7008
vn -0.2850 0.4751 0.8325
vn -0.2555 0.4164 0.8726
vn -0.7071 0.5842 -0.3983
vn 0.1376 0.6663 0.7329
vn 0.1686 0.6330 0.7556
vn -0.1475 0.3271 0.9334
vn -0.5000 0.7156 -0.4878
vn 0.1946 0.5525 0.8104
vn 0.0764 0.3028 0.9500
vn -0.2588 0.7981 -0.5441
vn 0.1376 0.4388 0.8880
vn 0.2555 0.4164 0.8726
vn -0.0000 0.8262 -0.5633
vn -0.0000 0.3917 0.9201
vn 0.2850 0.6013 0.7464
vn 0.2521 0.5996 0.7595
vn 0.2588 0.7981 -0.5441
vn -0.1846 0.3913 0.9016
vn -0.1376 0.4388 0.8880
vn 0.1475 0.7494 0.6455
vn 0.5000 0.7155 -0.4878
vn -0.2086 0.7106 0.6719
vn 0.7071 0.5842 -0.3983
vn -0.2610 0.5438 0.7976
vn -0.1946 0.5525 0.8104
vn -0.2950 0.5382 0.7895
vn 0.8660 0.4131 -0.2817
vn -0.2086 0.3659 0.9070
vn 0.9659 0.2138 -0.1458
vn 1.0000 -0.0000 -0.0000
vn 0.1880 0.5942 0.7821
vn 0.9659 -0.2138 0.1458
vn 0.8660 -0.4131 0.2817
vn 0.7071 -0.5842 0.3983
vn 0.5000 -0.7155 0.4878
vn 0.2588 -0.7981 0.5441
vn -0.1380 0.5270 0.8386
vn -0.1429 0.5575 0.8178
vn 0.0714 0.6598 0.7481
vn 0.1010 0.6410 0.7609
vn 0.1010 0.4741 0.8747
vn -0.1237 0.4985 0.8580
vn 0.0370 0.6716 0.7400
vn -0.0370 0.6716 0.7400
vn -0.0000 0.6756 0.7373
vn 0.1237 0.4985 0.8580
vn -0.1010 0.4740 0.8747
vn -0.0714 0.6598 0.7481
vn 0.1380 0.5270 0.8386
vn -0.0714 0.4553 0.8875
vn -0.1010 0.6410 0.7609
vn 0.1429 0.5576 0.8177
vn -0.0370 0.4435 0.8955
vn -0.1237 0.6166 0.7775
vn 0.1380 0.5881 0.7969
vn -0.0000 0.4395 0.8982
vn -0.1380 0.5881 0.7970
vn 0.1237 0.6165 0.7775
vn -0.0000 0.5633 0.8262
vn 0.1326 -0.8926 -0.4309
vn -0.0000 -0.9070 -0.4211
vn -0.0000 -0.8489 -0.5286
vn 0.1045 -0.8375 -0.5364
vn -0.4436 -0.2722 -0.8539
vn -0.3622 -0.1846 -0.9137
vn -0.2854 -0.2796 -0.9167
vn -0.3495 -0.3487 -0.8696
vn -0.1326 -0.0750 -0.9883
vn -0.0000 -0.0606 -0.9982
vn -0.0000 -0.1820 -0.9833
vn -0.1044 -0.1933 -0.9756
vn 0.2561 -0.1173 -0.9595
vn 0.3622 -0.1845 -0.9137
vn 0.2854 -0.2796 -0.9167
vn 0.2018 -0.2266 -0.9529
vn 0.4948 -0.3743 -0.7843
vn 0.5122 -0.4838 -0.7096
vn 0.4036 -0.5154 -0.7560
vn 0.3898 -0.4291 -0.8148
vn 0.4436 -0.6954 -0.5654
vn 0.3622 -0.7831 -0.5056
vn 0.2854 -0.7512 -0.5952
vn 0.3495 -0.6821 -0.6423
vn -0.1326 -0.8926 -0.4309
vn -0.2561 -0.8503 -0.4597
vn -0.2018 -0.8042 -0.5591
vn -0.1045 -0.8375 -0.5364
vn -0.4436 -0.6954 -0.5654
vn -0.4948 -0.5933 -0.6349
vn -0.3898 -0.6017 -0.6971
vn -0.3495 -0.6821 -0.6423
vn -0.4948 -0.3743 -0.7843
vn -0.3898 -0.4291 -0.8148
vn -0.2561 -0.1173 -0.9595
vn -0.2018 -0.2266 -0.9529
vn 0.1326 -0.0750 -0.9883
vn 0.1044 -0.1933 -0.9756
vn 0.4436 -0.2722 -0.8539
vn 0.3495 -0.3487 -0.8696
vn 0.4948 -0.5933 -0.6349
vn 0.3898 -0.6017 -0.6971
vn 0.2561 -0.8503 -0.4597
vn 0.2018 -0.8042 -0.5591
vn -0.3622 -0.7831 -0.5056
vn -0.2854 -0.7512 -0.5952
vn -0.5122 -0.4838 -0.7096
vn -0.4036 -0.5154 -0.7560
vn 0.2061 -0.5960 -0.7761
vn 0.2133 -0.5504 -0.8072
vn -0.0552 -0.3801 -0.9233
vn -0.1067 -0.3977 -0.9113
vn 0.2061 -0.5047 -0.8383
vn -0.1848 -0.6385 -0.7471
vn -0.1508 -0.6750 -0.7222
vn -0.1509 -0.4257 -0.8922
vn 0.1848 -0.4622 -0.8673
vn -0.1067 -0.7030 -0.7031
vn -0.0000 -0.7266 -0.6870
vn 0.0552 -0.7206 -0.6911
vn -0.1848 -0.4622 -0.8673
vn 0.1508 -0.4257 -0.8922
vn -0.0552 -0.7206 -0.6911
vn 0.1067 -0.7030 -0.7031
vn -0.2061 -0.5047 -0.8383
vn 0.1066 -0.3977 -0.9113
vn 0.1508 -0.6750 -0.7222
vn -0.2133 -0.5504 -0.8072
vn 0.0552 -0.3801 -0.9233
vn 0.1848 -0.6385 -0.7471
vn -0.2061 -0.5960 -0.7761
vn -0.0000 -0.3741 -0.9274
vn -0.1034 -0.4719 -0.8756
vn -0.1266 -0.4969 -0.8585
vn 0.1266 -0.4969 -0.8585
vn 0.1033 -0.4719 -0.8756
vn -0.0378 -0.6739 -0.7378
vn -0.0000 -0.6780 -0.7350
vn 0.0378 -0.6739 -0.7378
vn 0.0731 -0.6619 -0.7461
vn -0.1412 -0.5260 -0.8387
vn 0.0731 -0.4527 -0.8887
vn 0.1034 -0.6427 -0.7591
vn -0.1462 -0.5573 -0.8174
vn 0.0378 -0.4406 -0.8969
vn 0.1266 -0.6176 -0.7762
vn -0.1412 -0.5885 -0.7961
vn -0.0000 -0.4365 -0.8997
vn 0.1412 -0.5885 -0.7961
vn -0.1266 -0.6176 -0.7762
vn -0.0378 -0.4406 -0.8969
vn 0.1462 -0.5573 -0.8174
vn -0.1034 -0.6427 -0.7591
vn -0.0731 -0.4527 -0.8887
vn 0.1412 -0.5260 -0.8387
vn -0.0731 -0.6619 -0.7461
vn 0.0245 0.5118 0.8588
vn -0.0000 0.7342 -0.6789
vn -0.0000 -0.2151 -0.9766
vn -0.0000 -0.4416 -0.8972
vn -0.0000 -0.9963 0.0864
vn -0.0000 -0.9419 0.3358
vn -0.0000 0.7360 -0.6770
vn -0.0000 0.7347 -0.6784
vn -0.0000 0.7335 -0.6797
vn -0.0000 0.7341 -0.6791
vn -0.0000 -0.5633 -0.8262
vn -0.0000 0.7322 -0.6811
vn -0.0000 0.7323 -0.6810
vn -0.0000 0.8638 -0.5038
vn 0.9961 0.0392 0.0795
vn -0.0000 -0.8972 0.4417
vn -0.9961 0.0392 0.0795
vn -0.0000 0.8972 -0.4417
vn -0.0000 0.8972 -0.4416
vn -0.0000 0.7896 0.6136
vn -0.0000 0.8006 0.5992
vn -0.0000 -0.7784 -0.6278
vn -0.9923 0.0547 0.1112
vn -0.9768 0.0945 0.1921
vn -0.0000 0.6247 0.7809
vn 0.9923 0.0547 0.1112
vn -0.0000 -0.7850 0.6195
vn -0.0000 0.4416 0.8972
vn -0.0000 -0.6686 0.7436
vn 0.9768 0.0945 0.1921
vn -0.0000 -0.4417 -0.8972
vn -0.0000 0.9426 -0.3338
vn -0.9244 0.1684 0.3422
vn 0.9244 0.1684 0.3422
vn -0.0000 0.7285 -0.6850
vn -0.0000 -0.2833 -0.9590
vn -0.0000 -0.0239 0.9997
vn -0.0000 0.2833 0.9590
vn -0.0000 0.8262 -0.5634
vn -0.3420 0.5293 0.7764
vn -0.9397 0.1927 0.2826
vn -0.8660 0.2817 0.4131
vn -0.6428 0.4315 0.6329
vn -0.9848 0.0978 0.1435
vn -0.3420 -0.5293 -0.7764
vn -0.6428 -0.4315 -0.6329
vn -0.9848 -0.0978 -0.1435
vn -0.8660 -0.2817 -0.4131
vn -0.7660 -0.3621 -0.5311
vn 0.8660 -0.2817 -0.4131
vn 0.6428 -0.4315 -0.6329
vn 0.3420 -0.5293 -0.7764
vn 0.9848 -0.0978 -0.1435
vn 0.9848 0.0978 0.1435
vn 0.8660 0.2817 0.4131
vn 0.6428 0.4315 0.6329
vn 0.3420 0.5293 0.7764
vn 0.8660 0.2816 0.4131
vn -0.0000 -0.5634 -0.8262
vn -0.0000 0.5634 0.8262
vn -0.0000 0.8263 -0.5633
vn -0.0000 -0.8263 0.5633
vn -0.7878 0.4313 0.4398
vn -0.6180 0.5760 -0.5350
vn 0.1698 0.1446 -0.9748
vn 0.7877 -0.4312 -0.4399
vn 0.6181 -0.5760 0.5349
vn -0.1698 -0.1446 0.9748
vn -0.5589 -0.8005 -0.2161
vn 0.7878 0.4313 0.4398
vn 0.6180 0.5760 -0.5350
vn -0.1698 0.1446 -0.9748
vn -0.7877 -0.4312 -0.4399
vn -0.6181 -0.5760 0.5349
vn 0.1698 -0.1446 0.9748
vn 0.5589 -0.8005 -0.2161
vn -0.0000 -0.3420 0.9397
vn -0.0000 -0.8660 0.5000
vn -0.0000 -0.9848 -0.1737
vn -0.0000 0.8660 0.5000
vn -0.0000 0.3420 0.9397
vn -0.0000 -0.0000 -1.0000
vn -0.0000 0.6428 -0.7660
vn -0.0000 0.9848 -0.1737
vn -0.0000 -0.6428 -0.7660
vt 0.799509 0.586495
vt 0.821557 0.561386
vt 0.836334 0.634639
vt 0.823015 0.649807
vt 0.918246 0.586495
vt 0.936249 0.622005
vt 0.905615 0.671257
vt 0.894740 0.649806
vt 0.841912 0.484040
vt 0.841912 0.481604
vt 0.809137 0.498927
vt 0.809137 0.501364
vt 0.851188 0.857208
vt 0.836334 0.849356
vt 0.851574 0.778964
vt 0.856386 0.781508
vt 0.908619 0.972675
vt 0.875844 0.989998
vt 0.871607 0.929835
vt 0.896199 0.916838
vt 0.779751 0.532393
vt 0.779751 0.534829
vt 0.781507 0.856219
vt 0.768778 0.812729
vt 0.804451 0.786467
vt 0.812141 0.812738
vt 0.809137 0.972675
vt 0.779751 0.939210
vt 0.799509 0.891728
vt 0.821557 0.916838
vt 0.755758 0.579721
vt 0.755758 0.582157
vt 0.846148 0.929836
vt 0.738792 0.833918
vt 0.730010 0.769267
vt 0.762188 0.764221
vt 0.738792 0.637685
vt 0.738792 0.640121
vt 0.918246 0.891728
vt 0.881422 0.849356
vt 0.894740 0.834188
vt 0.781507 0.622005
vt 0.768777 0.665495
vt 0.730010 0.702336
vt 0.730010 0.704771
vt 0.955567 0.764221
vt 0.948978 0.812728
vt 0.913304 0.786467
vt 0.917284 0.757165
vt 0.846148 0.548388
vt 0.730010 0.771703
vt 0.948978 0.665496
vt 0.913304 0.697528
vt 0.875844 0.481604
vt 0.908619 0.498928
vt 0.896199 0.561386
vt 0.871608 0.548389
vt 0.738792 0.836354
vt 0.881422 0.634640
vt 0.866567 0.626787
vt 0.961998 0.579721
vt 0.978964 0.637685
vt 0.755758 0.891883
vt 0.755758 0.894318
vt 0.851188 0.626788
vt 0.987746 0.769267
vt 0.978964 0.833918
vt 0.779751 0.941645
vt 0.812141 0.671257
vt 0.804451 0.697528
vt 0.938005 0.939210
vt 0.809137 0.975111
vt 0.800471 0.757165
vt 0.841912 0.989999
vt 0.841912 0.992434
vt 0.823015 0.834188
vt 0.875844 0.992434
vt 0.866567 0.857208
vt 0.762188 0.714002
vt 0.908619 0.975111
vt 0.936249 0.856219
vt 0.905615 0.812738
vt 0.938005 0.941645
vt 0.938005 0.532393
vt 0.961998 0.891883
vt 0.961998 0.894318
vt 0.955567 0.714003
vt 0.917284 0.726830
vt 0.987746 0.702335
vt 0.978964 0.836354
vt 0.987746 0.771703
vt 0.987746 0.704771
vt 0.800471 0.726830
vt 0.978964 0.640121
vt 0.961998 0.582157
vt 0.938005 0.534829
vt 0.908619 0.501364
vt 0.875844 0.484040
vt 0.877801 0.749095
vt 0.877801 0.739267
vt 0.847259 0.714313
vt 0.843735 0.721262
vt 0.847259 0.774050
vt 0.876511 0.758589
vt 0.851574 0.709398
vt 0.861369 0.706855
vt 0.856386 0.706854
vt 0.843736 0.767100
vt 0.874020 0.767100
vt 0.866182 0.709399
vt 0.841244 0.758589
vt 0.870497 0.774050
vt 0.870497 0.714313
vt 0.839955 0.749096
vt 0.866182 0.778964
vt 0.874020 0.721262
vt 0.839955 0.739267
vt 0.861369 0.781508
vt 0.876511 0.729774
vt 0.841244 0.729774
vt 0.858878 0.744931
vt 0.846084 0.552840
vt 0.871672 0.552840
vt 0.799207 0.897926
vt 0.781114 0.862236
vt 0.871672 0.936226
vt 0.846084 0.936226
vt 0.936642 0.862236
vt 0.918548 0.897926
vt 0.956059 0.719296
vt 0.956059 0.769770
vt 0.918548 0.591141
vt 0.936642 0.626831
vt 0.799207 0.591141
vt 0.821368 0.565904
vt 0.761697 0.719296
vt 0.768319 0.670543
vt 0.768319 0.818524
vt 0.821368 0.923162
vt 0.896388 0.923162
vt 0.949436 0.818524
vt 0.949436 0.670543
vt 0.896388 0.565904
vt 0.781114 0.626832
vt 0.761697 0.769770
vt 0.914655 0.702443
vt 0.918733 0.732471
vt 0.850998 0.866083
vt 0.835774 0.858037
vt 0.918733 0.763559
vt 0.803101 0.702443
vt 0.810981 0.675520
vt 0.822125 0.842493
vt 0.914655 0.793588
vt 0.822125 0.653537
vt 0.850998 0.629948
vt 0.866758 0.629948
vt 0.810981 0.820510
vt 0.906774 0.820510
vt 0.835774 0.637994
vt 0.881981 0.637993
vt 0.803101 0.793588
vt 0.895630 0.842493
vt 0.895630 0.653537
vt 0.799022 0.763559
vt 0.881981 0.858037
vt 0.906774 0.675520
vt 0.799022 0.732471
vt 0.866758 0.866083
vt 0.845616 0.783991
vt 0.841594 0.776058
vt 0.879005 0.766343
vt 0.876161 0.776058
vt 0.850541 0.710198
vt 0.856034 0.707293
vt 0.861721 0.707293
vt 0.867215 0.710198
vt 0.838751 0.766343
vt 0.872140 0.783990
vt 0.872140 0.715806
vt 0.837279 0.755507
vt 0.867215 0.789599
vt 0.876161 0.723739
vt 0.837279 0.744289
vt 0.861721 0.792503
vt 0.879005 0.733453
vt 0.838751 0.733454
vt 0.856034 0.792503
vt 0.880477 0.744289
vt 0.841594 0.723738
vt 0.850541 0.789599
vt 0.880477 0.755507
vt 0.845616 0.715806
vt 0.788149 0.102373
vt 0.753725 0.092915
vt 0.798410 0.262168
vt 0.832833 0.271625
vt 0.687289 0.623635
vt 0.688713 0.621693
vt 0.703761 0.675555
vt 0.422315 0.892585
vt 0.422315 0.971279
vt 0.382511 0.971279
vt 0.382511 0.892585
vt 0.753634 0.052221
vt 0.788059 0.061677
vt 0.723934 0.555460
vt 0.741244 0.606237
vt 0.741809 0.438339
vt 0.687238 0.447809
vt 0.422315 0.760743
vt 0.422315 0.834938
vt 0.382511 0.834938
vt 0.382511 0.760743
vt 0.462118 0.760743
vt 0.462118 0.834938
vt 0.647779 0.501613
vt 0.342706 0.701974
vt 0.382511 0.701974
vt 0.342706 0.760743
vt 0.462118 0.912337
vt 0.422315 0.912337
vt 0.422315 0.701974
vt 0.784455 0.465364
vt 0.818879 0.474821
vt 0.759456 0.490106
vt 0.759455 0.490106
vt 0.342706 0.834938
vt 0.618551 0.053423
vt 0.618641 0.094118
vt 0.587827 0.053697
vt 0.587917 0.094392
vt 0.409760 0.055281
vt 0.395212 0.055412
vt 0.384945 0.096198
vt 0.401039 0.096055
vt 0.389713 0.145425
vt 0.373619 0.145568
vt 0.389762 0.167602
vt 0.373669 0.167745
vt 0.420457 0.191879
vt 0.420336 0.137944
vt 0.382511 0.910131
vt 0.342706 0.910131
vt 0.462118 0.701974
vt 0.765021 0.353796
vt 0.711908 0.426219
vt 0.708501 0.187994
vt 0.660893 0.276565
vt 0.322578 0.013784
vt 0.322562 0.032594
vt 0.322547 0.050132
vt 0.322560 0.035297
vt 0.017622 0.195071
vt 0.308216 0.196072
vt 0.308220 0.191216
vt 0.017627 0.190215
vt 0.308269 0.134342
vt 0.308238 0.169695
vt 0.322444 0.169746
vt 0.322474 0.134390
vt 0.308232 0.177229
vt 0.017638 0.176229
vt 0.308198 0.217328
vt 0.308192 0.223860
vt 0.322397 0.223910
vt 0.322403 0.217376
vt 0.308250 0.155802
vt 0.017657 0.154800
vt 0.308354 0.034989
vt 0.308350 0.039846
vt 0.308373 0.013734
vt 0.308378 0.007201
vt 0.308273 0.129517
vt 0.017679 0.128516
vt 0.308356 0.032545
vt 0.308297 0.101545
vt 0.017703 0.100545
vt 0.308320 0.075260
vt 0.017726 0.074260
vt 0.308214 0.198517
vt 0.308338 0.053834
vt 0.017745 0.052832
vt 0.308331 0.061366
vt 0.322538 0.061415
vt 0.017756 0.038846
vt 0.017760 0.033989
vt 0.308301 0.096720
vt 0.322419 0.198566
vt 0.322584 0.007249
vt 0.322420 0.198565
vt 0.322507 0.096768
vt 0.322454 0.158297
vt 0.322478 0.130415
vt 0.322454 0.158296
vt 0.322435 0.181027
vt 0.322417 0.201015
vt 0.322421 0.195864
vt 0.322504 0.100744
vt 0.322565 0.030144
vt 0.322527 0.072862
vt 0.354694 0.050244
vt 0.354674 0.072973
vt 0.354581 0.181137
vt 0.354601 0.158408
vt 0.354569 0.195973
vt 0.354650 0.100856
vt 0.354625 0.130526
vt 0.354706 0.035408
vt 0.354712 0.030255
vt 0.354564 0.201126
vt 0.417495 0.020408
vt 0.722854 0.009767
vt 0.723561 0.016779
vt 0.418202 0.027421
vt 0.722230 0.022346
vt 0.416871 0.032988
vt 0.720191 0.020902
vt 0.414832 0.031542
vt 0.719484 0.013890
vt 0.414124 0.024531
vt 0.720815 0.008323
vt 0.415456 0.018964
vt 0.621684 0.925287
vt 0.613054 0.904718
vt 0.599833 0.900056
vt 0.613054 0.972704
vt 0.621684 0.952137
vt 0.583615 0.938711
vt 0.588207 0.963942
vt 0.599833 0.977368
vt 0.588207 0.913481
s 1
usemtl spg62
f 51/1/1 1/2/2 73/3/3
f 51/1/1 73/3/3 75/4/4
f 70/5/5 69/6/6 93/7/7
f 70/5/5 93/7/7 94/8/8
f 3/9/9 4/10/9 6/11/10
f 3/9/9 6/11/10 5/12/10
f 84/13/11 83/14/12 107/15/13
f 84/13/11 107/15/13 108/16/14
f 30/17/15 28/18/16 61/19/17
f 30/17/15 61/19/17 62/20/18
f 5/12/10 6/11/10 8/21/19
f 5/12/10 8/21/19 7/22/19
f 57/23/20 56/24/21 80/25/22
f 57/23/20 80/25/22 81/26/23
f 24/27/24 22/28/25 58/29/26
f 24/27/24 58/29/26 59/30/27
f 7/22/19 8/21/19 10/31/28
f 7/22/19 10/31/28 9/32/28
f 60/33/29 59/30/27 83/14/12
f 60/33/29 83/14/12 84/13/11
f 18/34/30 16/35/31 55/36/32
f 18/34/30 55/36/32 56/24/21
f 9/32/28 10/31/28 12/37/33
f 9/32/28 12/37/33 11/38/33
f 63/39/34 62/20/18 86/40/35
f 63/39/34 86/40/35 87/41/36
f 12/37/37 10/31/38 52/42/39
f 12/37/37 52/42/39 53/43/40
f 11/38/33 12/37/33 14/44/41
f 11/38/33 14/44/41 13/45/41
f 66/46/42 65/47/43 89/48/44
f 66/46/42 89/48/44 90/49/45
f 6/11/46 4/10/47 2/50/48
f 6/11/46 2/50/48 1/2/2
f 13/45/41 14/44/41 16/35/49
f 13/45/41 16/35/49 15/51/49
f 69/6/6 68/52/50 92/53/51
f 69/6/6 92/53/51 93/7/7
f 50/54/52 48/55/53 71/56/54
f 50/54/52 71/56/54 72/57/55
f 15/51/49 16/35/49 18/34/56
f 15/51/49 18/34/56 17/58/56
f 72/57/55 71/56/54 95/59/57
f 72/57/55 95/59/57 96/60/58
f 44/61/59 42/62/60 68/52/50
f 44/61/59 68/52/50 69/6/6
f 17/58/56 18/34/56 20/63/61
f 17/58/56 20/63/61 19/64/61
f 1/2/2 2/50/48 74/65/62
f 1/2/2 74/65/62 73/3/3
f 38/66/63 36/67/64 65/47/43
f 38/66/63 65/47/43 66/46/42
f 19/64/61 20/63/61 22/28/65
f 19/64/61 22/28/65 21/68/65
f 53/43/40 52/42/39 76/69/66
f 53/43/40 76/69/66 77/70/67
f 32/71/68 30/17/15 62/20/18
f 32/71/68 62/20/18 63/39/34
f 21/68/65 22/28/65 24/27/69
f 21/68/65 24/27/69 23/72/69
f 56/24/21 55/36/32 79/73/70
f 56/24/21 79/73/70 80/25/22
f 26/74/71 24/27/24 59/30/27
f 26/74/71 59/30/27 60/33/29
f 23/72/69 24/27/69 26/74/72
f 23/72/69 26/74/72 25/75/72
f 59/30/27 58/29/26 82/76/73
f 59/30/27 82/76/73 83/14/12
f 20/63/74 18/34/30 56/24/21
f 20/63/74 56/24/21 57/23/20
f 25/75/72 26/74/72 28/18/75
f 25/75/72 28/18/75 27/77/75
f 62/20/18 61/19/17 85/78/76
f 62/20/18 85/78/76 86/40/35
f 14/44/77 12/37/37 53/43/40
f 14/44/77 53/43/40 54/79/78
f 27/77/75 28/18/75 30/17/79
f 27/77/75 30/17/79 29/80/79
f 65/47/43 64/81/80 88/82/81
f 65/47/43 88/82/81 89/48/44
f 8/21/82 6/11/46 1/2/2
f 8/21/82 1/2/2 51/1/1
f 29/80/79 30/17/79 32/71/83
f 29/80/79 32/71/83 31/83/83
f 2/50/48 72/57/55 96/60/58
f 2/50/48 96/60/58 74/65/62
f 46/84/84 44/61/59 69/6/6
f 46/84/84 69/6/6 70/5/5
f 31/83/83 32/71/83 34/85/85
f 31/83/83 34/85/85 33/86/85
f 68/52/50 67/87/86 91/88/87
f 68/52/50 91/88/87 92/53/51
f 40/89/88 38/66/63 66/46/42
f 40/89/88 66/46/42 67/87/86
f 33/86/85 34/85/85 36/67/89
f 33/86/85 36/67/89 35/90/89
f 71/56/54 70/5/5 94/8/8
f 71/56/54 94/8/8 95/59/57
f 34/85/90 32/71/68 63/39/34
f 34/85/90 63/39/34 64/81/80
f 35/90/89 36/67/89 38/66/91
f 35/90/89 38/66/91 37/91/91
f 52/42/39 51/1/1 75/4/4
f 52/42/39 75/4/4 76/69/66
f 28/18/16 26/74/71 60/33/29
f 28/18/16 60/33/29 61/19/17
f 37/91/91 38/66/91 40/89/92
f 37/91/91 40/89/92 39/92/92
f 55/36/32 54/79/78 78/93/93
f 55/36/32 78/93/93 79/73/70
f 22/28/25 20/63/74 57/23/20
f 22/28/25 57/23/20 58/29/26
f 39/92/92 40/89/92 42/62/94
f 39/92/92 42/62/94 41/94/94
f 58/29/26 57/23/20 81/26/23
f 58/29/26 81/26/23 82/76/73
f 16/35/31 14/44/77 54/79/78
f 16/35/31 54/79/78 55/36/32
f 41/94/94 42/62/94 44/61/95
f 41/94/94 44/61/95 43/95/95
f 61/19/17 60/33/29 84/13/11
f 61/19/17 84/13/11 85/78/76
f 10/31/38 8/21/82 51/1/1
f 10/31/38 51/1/1 52/42/39
f 43/95/95 44/61/95 46/84/96
f 43/95/95 46/84/96 45/96/96
f 64/81/80 63/39/34 87/41/36
f 64/81/80 87/41/36 88/82/81
f 4/10/47 50/54/52 72/57/55
f 4/10/47 72/57/55 2/50/48
f 45/96/96 46/84/96 48/55/97
f 45/96/96 48/55/97 47/97/97
f 42/62/60 40/89/88 67/87/86
f 42/62/60 67/87/86 68/52/50
f 48/55/53 46/84/84 70/5/5
f 48/55/53 70/5/5 71/56/54
f 47/97/97 48/55/97 50/54/98
f 47/97/97 50/54/98 49/98/98
f 54/79/78 53/43/40 77/70/67
f 54/79/78 77/70/67 78/93/93
f 67/87/86 66/46/42 90/49/45
f 67/87/86 90/49/45 91/88/87
f 49/98/98 50/54/98 4/10/9
f 49/98/98 4/10/9 3/9/9
f 36/67/64 34/85/90 64/81/80
f 36/67/64 64/81/80 65/47/43
f 91/88/87 90/49/45 114/99/99
f 91/88/87 114/99/99 115/100/100
f 76/69/66 75/4/4 99/101/101
f 76/69/66 99/101/101 100/102/102
f 83/14/12 82/76/73 106/103/103
f 83/14/12 106/103/103 107/15/13
f 90/49/45 89/48/44 113/104/104
f 90/49/45 113/104/104 114/99/99
f 75/4/4 73/3/3 97/105/105
f 75/4/4 97/105/105 99/101/101
f 74/65/62 96/60/58 120/106/106
f 74/65/62 120/106/106 98/107/107
f 82/76/73 81/26/23 105/108/108
f 82/76/73 105/108/108 106/103/103
f 89/48/44 88/82/81 112/109/109
f 89/48/44 112/109/109 113/104/104
f 73/3/3 74/65/62 98/107/107
f 73/3/3 98/107/107 97/105/105
f 96/60/58 95/59/57 119/110/110
f 96/60/58 119/110/110 120/106/106
f 81/26/23 80/25/22 104/111/111
f 81/26/23 104/111/111 105/108/108
f 88/82/81 87/41/36 111/112/112
f 88/82/81 111/112/112 112/109/109
f 95/59/57 94/8/8 118/113/113
f 95/59/57 118/113/113 119/110/110
f 80/25/22 79/73/70 103/114/114
f 80/25/22 103/114/114 104/111/111
f 87/41/36 86/40/35 110/115/115
f 87/41/36 110/115/115 111/112/112
f 94/8/8 93/7/7 117/116/116
f 94/8/8 117/116/116 118/113/113
f 79/73/70 78/93/93 102/117/117
f 79/73/70 102/117/117 103/114/114
f 86/40/35 85/78/76 109/118/118
f 86/40/35 109/118/118 110/115/115
f 93/7/7 92/53/51 116/119/119
f 93/7/7 116/119/119 117/116/116
f 78/93/93 77/70/67 101/120/120
f 78/93/93 101/120/120 102/117/117
f 85/78/76 84/13/11 108/16/14
f 85/78/76 108/16/14 109/118/118
f 92/53/51 91/88/87 115/100/100
f 92/53/51 115/100/100 116/119/119
f 77/70/67 76/69/66 100/102/102
f 77/70/67 100/102/102 101/120/120
f 119/110/110 118/113/113 121/121/121
f 104/111/111 103/114/114 121/121/121
f 111/112/112 110/115/115 121/121/121
f 118/113/113 117/116/116 121/121/121
f 103/114/114 102/117/117 121/121/121
f 110/115/115 109/118/118 121/121/121
f 117/116/116 116/119/119 121/121/121
f 102/117/117 101/120/120 121/121/121
f 109/118/118 108/16/14 121/121/121
f 116/119/119 115/100/100 121/121/121
f 101/120/120 100/102/102 121/121/121
f 108/16/14 107/15/13 121/121/121
f 115/100/100 114/99/99 121/121/121
f 100/102/102 99/101/101 121/121/121
f 107/15/13 106/103/103 121/121/121
f 114/99/99 113/104/104 121/121/121
f 99/101/101 97/105/105 121/121/121
f 98/107/107 120/106/106 121/121/121
f 106/103/103 105/108/108 121/121/121
f 113/104/104 112/109/109 121/121/121
f 97/105/105 98/107/107 121/121/121
f 120/106/106 119/110/110 121/121/121
f 105/108/108 104/111/111 121/121/121
f 112/109/109 111/112/112 121/121/121
f 49/98/122 3/9/123 144/122/124
f 49/98/122 144/122/124 145/123/125
f 19/64/126 21/68/127 135/124/128
f 19/64/126 135/124/128 136/125/129
f 25/75/130 27/77/131 132/126/132
f 25/75/130 132/126/132 133/127/133
f 31/83/134 33/86/135 129/128/136
f 31/83/134 129/128/136 130/129/137
f 37/91/138 39/92/139 126/130/140
f 37/91/138 126/130/140 127/131/141
f 43/95/142 45/96/143 123/132/144
f 43/95/142 123/132/144 124/133/145
f 5/12/146 7/22/147 142/134/148
f 5/12/146 142/134/148 143/135/149
f 11/38/150 13/45/151 139/136/152
f 11/38/150 139/136/152 140/137/153
f 3/9/123 5/12/146 143/135/149
f 3/9/123 143/135/149 144/122/124
f 17/58/154 19/64/126 136/125/129
f 17/58/154 136/125/129 137/138/155
f 23/72/156 25/75/130 133/127/133
f 23/72/156 133/127/133 134/139/157
f 29/80/158 31/83/134 130/129/137
f 29/80/158 130/129/137 131/140/159
f 35/90/160 37/91/138 127/131/141
f 35/90/160 127/131/141 128/141/161
f 41/94/162 43/95/142 124/133/145
f 41/94/162 124/133/145 125/142/163
f 47/97/164 49/98/122 145/123/125
f 47/97/164 145/123/125 122/143/165
f 9/32/166 11/38/150 140/137/153
f 9/32/166 140/137/153 141/144/167
f 15/51/168 17/58/154 137/138/155
f 15/51/168 137/138/155 138/145/169
f 21/68/127 23/72/156 134/139/157
f 21/68/127 134/139/157 135/124/128
f 27/77/131 29/80/158 131/140/159
f 27/77/131 131/140/159 132/126/132
f 33/86/135 35/90/160 128/141/161
f 33/86/135 128/141/161 129/128/136
f 39/92/139 41/94/162 125/142/163
f 39/92/139 125/142/163 126/130/140
f 45/96/143 47/97/164 122/143/165
f 45/96/143 122/143/165 123/132/144
f 7/22/147 9/32/166 141/144/167
f 7/22/147 141/144/167 142/134/148
f 13/45/151 15/51/168 138/145/169
f 13/45/151 138/145/169 139/136/152
f 126/130/140 125/142/163 149/146/170
f 126/130/140 149/146/170 150/147/171
f 134/139/157 133/127/133 157/148/172
f 134/139/157 157/148/172 158/149/173
f 127/131/141 126/130/140 150/147/171
f 127/131/141 150/147/171 151/150/174
f 141/144/167 140/137/153 164/151/175
f 141/144/167 164/151/175 165/152/176
f 135/124/128 134/139/157 158/149/173
f 135/124/128 158/149/173 159/153/177
f 128/141/161 127/131/141 151/150/174
f 128/141/161 151/150/174 152/154/178
f 142/134/148 141/144/167 165/152/176
f 142/134/148 165/152/176 166/155/179
f 145/123/125 144/122/124 168/156/180
f 145/123/125 168/156/180 169/157/181
f 136/125/129 135/124/128 159/153/177
f 136/125/129 159/153/177 160/158/182
f 129/128/136 128/141/161 152/154/178
f 129/128/136 152/154/178 153/159/183
f 143/135/149 142/134/148 166/155/179
f 143/135/149 166/155/179 167/160/184
f 122/143/165 145/123/125 169/157/181
f 122/143/165 169/157/181 146/161/185
f 137/138/155 136/125/129 160/158/182
f 137/138/155 160/158/182 161/162/186
f 130/129/137 129/128/136 153/159/183
f 130/129/137 153/159/183 154/163/187
f 144/122/124 143/135/149 167/160/184
f 144/122/124 167/160/184 168/156/180
f 123/132/144 122/143/165 146/161/185
f 123/132/144 146/161/185 147/164/188
f 138/145/169 137/138/155 161/162/186
f 138/145/169 161/162/186 162/165/189
f 131/140/159 130/129/137 154/163/187
f 131/140/159 154/163/187 155/166/190
f 124/133/145 123/132/144 147/164/188
f 124/133/145 147/164/188 148/167/191
f 139/136/152 138/145/169 162/165/189
f 139/136/152 162/165/189 163/168/192
f 132/126/132 131/140/159 155/166/190
f 132/126/132 155/166/190 156/169/193
f 125/142/163 124/133/145 148/167/191
f 125/142/163 148/167/191 149/146/170
f 140/137/153 139/136/152 163/168/192
f 140/137/153 163/168/192 164/151/175
f 133/127/133 132/126/132 156/169/193
f 133/127/133 156/169/193 157/148/172
f 160/158/182 159/153/177 183/170/194
f 160/158/182 183/170/194 184/171/195
f 153/159/183 152/154/178 176/172/196
f 153/159/183 176/172/196 177/173/197
f 168/156/180 167/160/184 191/174/198
f 168/156/180 191/174/198 192/175/199
f 146/161/185 169/157/181 193/176/200
f 146/161/185 193/176/200 170/177/201
f 161/162/186 160/158/182 184/171/195
f 161/162/186 184/171/195 185/178/202
f 154/163/187 153/159/183 177/173/197
f 154/163/187 177/173/197 178/179/203
f 147/164/188 146/161/185 170/177/201
f 147/164/188 170/177/201 171/180/204
f 162/165/189 161/162/186 185/178/202
f 162/165/189 185/178/202 186/181/205
f 155/166/190 154/163/187 178/179/203
f 155/166/190 178/179/203 179/182/206
f 148/167/191 147/164/188 171/180/204
f 148/167/191 171/180/204 172/183/207
f 163/168/192 162/165/189 186/181/205
f 163/168/192 186/181/205 187/184/208
f 156/169/193 155/166/190 179/182/206
f 156/169/193 179/182/206 180/185/209
f 149/146/170 148/167/191 172/183/207
f 149/146/170 172/183/207 173/186/210
f 164/151/175 163/168/192 187/184/208
f 164/151/175 187/184/208 188/187/211
f 157/148/172 156/169/193 180/185/209
f 157/148/172 180/185/209 181/188/212
f 150/147/171 149/146/170 173/186/210
f 150/147/171 173/186/210 174/189/213
f 165/152/176 164/151/175 188/187/211
f 165/152/176 188/187/211 189/190/214
f 158/149/173 157/148/172 181/188/212
f 158/149/173 181/188/212 182/191/215
f 151/150/174 150/147/171 174/189/213
f 151/150/174 174/189/213 175/192/216
f 166/155/179 165/152/176 189/190/214
f 166/155/179 189/190/214 190/193/217
f 159/153/177 158/149/173 182/191/215
f 159/153/177 182/191/215 183/170/194
f 152/154/178 151/150/174 175/192/216
f 152/154/178 175/192/216 176/172/196
f 167/160/184 166/155/179 190/193/217
f 167/160/184 190/193/217 191/174/198
f 169/157/181 168/156/180 192/175/199
f 169/157/181 192/175/199 193/176/200
f 254/194/92 197/195/92 259/196/92
f 254/194/92 259/196/92 261/197/92
f 248/198/218 249/199/218 250/200/218
f 248/198/218 250/200/218 252/200/218
f 253/201/219 252/202/219 250/203/219
f 253/201/219 250/203/219 251/204/219
f 195/205/92 197/195/92 254/194/92
f 195/205/92 254/194/92 255/206/92
f 254/194/220 256/194/220 257/206/221
f 254/194/220 257/206/221 255/206/221
f 240/207/49 248/198/49 252/200/49
f 240/207/49 252/200/49 253/208/49
f 229/209/222 235/210/223 238/210/223
f 229/209/222 238/210/223 243/209/222
f 247/211/224 240/212/225 241/213/226
f 247/211/224 241/213/226 246/214/224
f 231/215/224 237/216/227 240/212/225
f 231/215/224 240/212/225 247/211/224
f 238/210/223 244/217/9 245/217/9
f 238/210/223 245/217/9 239/210/223
f 235/210/223 230/217/9 244/217/9
f 235/210/223 244/217/9 238/210/223
f 229/218/228 243/219/228 246/214/228
f 229/218/228 246/214/228 227/220/228
f 249/199/92 241/207/92 251/208/92
f 249/199/92 251/208/92 250/200/92
f 237/216/227 232/221/229 248/222/229
f 237/216/227 248/222/229 240/212/225
f 243/219/228 242/223/228 247/211/228
f 243/219/228 247/211/228 246/214/228
f 261/197/92 259/196/92 263/224/92
f 261/197/92 263/224/92 265/225/92
f 227/226/92 194/207/92 235/210/92
f 227/226/92 235/210/92 229/209/92
f 242/209/222 239/210/223 236/210/223
f 242/209/222 236/210/223 233/209/222
f 201/195/49 256/194/49 260/197/49
f 201/195/49 260/197/49 258/196/49
f 233/209/49 236/210/49 237/207/49
f 233/209/49 237/207/49 231/227/49
f 246/214/224 241/213/226 194/228/230
f 246/214/224 194/228/230 227/220/224
f 199/205/231 195/205/231 255/206/75
f 199/205/231 255/206/75 257/206/75
f 241/207/228 240/207/228 253/208/228
f 241/207/228 253/208/228 251/208/228
f 243/209/222 238/210/223 239/210/223
f 243/209/222 239/210/223 242/209/222
f 195/205/92 196/229/232 198/230/232
f 195/205/92 198/230/232 197/195/92
f 197/195/233 198/230/233 202/230/233
f 197/195/233 202/230/233 201/195/233
f 201/195/49 202/230/234 200/229/234
f 201/195/49 200/229/234 199/205/49
f 199/205/231 200/229/235 196/229/235
f 199/205/231 196/229/235 195/205/231
f 201/195/49 199/205/49 257/206/49
f 201/195/49 257/206/49 256/194/49
f 198/230/232 196/229/232 203/231/232
f 198/230/232 203/231/232 204/232/232
f 212/233/236 211/233/236 210/234/236
f 212/233/236 210/234/236 207/234/236
f 196/229/235 200/229/235 206/231/235
f 196/229/235 206/231/235 203/231/235
f 202/230/233 198/230/233 204/232/233
f 202/230/233 204/232/233 205/232/233
f 200/229/234 202/230/234 205/232/234
f 200/229/234 205/232/234 206/231/234
f 209/235/237 208/235/237 207/234/238
f 209/235/237 207/234/238 210/234/238
f 214/236/239 213/236/239 217/237/239
f 214/236/239 217/237/239 218/237/239
f 211/233/49 214/236/49 209/235/49
f 211/233/49 209/235/49 210/234/49
f 213/236/92 212/233/92 207/234/92
f 213/236/92 207/234/92 208/235/92
f 204/232/232 203/231/232 212/233/92
f 204/232/232 212/233/92 213/236/92
f 206/231/234 205/232/234 214/236/49
f 206/231/234 214/236/49 211/233/49
f 205/232/233 204/232/233 213/236/233
f 205/232/233 213/236/233 214/236/233
f 203/231/235 206/231/235 211/233/236
f 203/231/235 211/233/236 212/233/236
f 216/238/49 218/237/240 222/239/241
f 216/238/49 222/239/241 220/240/49
f 208/235/237 209/235/237 216/238/242
f 208/235/237 216/238/242 215/238/242
f 213/236/92 208/235/92 215/238/92
f 213/236/92 215/238/92 217/237/243
f 209/235/49 214/236/49 218/237/240
f 209/235/49 218/237/240 216/238/49
f 222/239/244 221/239/244 219/240/233
f 222/239/244 219/240/233 220/240/233
f 215/238/242 216/238/242 220/240/245
f 215/238/242 220/240/245 219/240/245
f 221/239/244 222/239/244 226/241/246
f 221/239/244 226/241/246 225/241/246
f 217/237/243 215/238/92 219/240/92
f 217/237/243 219/240/92 221/239/247
f 224/242/248 223/242/248 225/241/248
f 224/242/248 225/241/248 226/241/248
f 218/237/249 217/237/249 223/242/249
f 218/237/249 223/242/249 224/242/249
f 222/239/241 218/237/240 224/242/250
f 222/239/241 224/242/250 226/241/250
f 217/237/243 221/239/247 225/241/251
f 217/237/243 225/241/251 223/242/251
f 194/207/92 228/199/92 230/217/92
f 194/207/92 230/217/92 235/210/92
f 239/210/223 245/217/9 234/217/9
f 239/210/223 234/217/9 236/210/223
f 236/210/49 234/217/49 232/198/49
f 236/210/49 232/198/49 237/207/49
f 241/213/226 249/243/252 228/244/252
f 241/213/226 228/244/252 194/228/230
f 242/223/228 233/245/228 231/215/228
f 242/223/228 231/215/228 247/211/228
f 256/194/220 254/194/220 261/197/253
f 256/194/220 261/197/253 260/197/253
f 197/195/254 201/195/254 258/196/255
f 197/195/254 258/196/255 259/196/255
f 263/224/9 262/224/9 264/225/9
f 263/224/9 264/225/9 265/225/9
f 260/197/253 261/197/253 265/225/228
f 260/197/253 265/225/228 264/225/228
f 258/196/49 260/197/49 264/225/49
f 258/196/49 264/225/49 262/224/49
f 259/196/255 258/196/255 262/224/121
f 259/196/255 262/224/121 263/224/121
f 273/246/75 272/247/75 270/247/75
f 273/246/75 270/247/75 271/246/75
f 267/248/49 266/249/49 272/247/49
f 267/248/49 272/247/49 273/246/49
f 266/249/121 269/249/121 270/247/121
f 266/249/121 270/247/121 272/247/121
f 268/248/228 267/248/228 273/246/228
f 268/248/228 273/246/228 271/246/228
f 269/249/92 268/248/92 271/246/92
f 269/249/92 271/246/92 270/247/92
f 336/250/256 335/251/75 320/252/75
f 336/250/256 320/252/75 319/253/256
f 276/254/121 277/255/121 279/256/257
f 276/254/121 279/256/257 278/257/257
f 359/258/258 360/259/259 331/260/259
f 359/258/258 331/260/259 332/261/258
f 278/257/257 279/256/257 281/262/260
f 278/257/257 281/262/260 280/263/260
f 362/264/257 363/265/121 328/266/121
f 362/264/257 328/266/121 329/267/257
f 280/263/260 281/262/260 283/268/259
f 280/263/260 283/268/259 282/269/259
f 295/270/9 293/271/9 355/272/9
f 295/270/9 355/272/9 354/273/9
f 282/269/259 283/268/259 285/274/261
f 282/269/259 285/274/261 284/275/261
f 355/272/262 356/276/263 335/251/263
f 355/272/262 335/251/263 336/250/262
f 284/275/261 285/274/261 287/277/264
f 284/275/261 287/277/264 286/278/264
f 285/274/9 283/268/9 360/259/9
f 285/274/9 360/259/9 359/258/9
f 286/278/264 287/277/264 289/279/265
f 286/278/264 289/279/265 288/280/265
f 311/256/9 309/262/9 347/281/9
f 311/256/9 347/281/9 346/264/9
f 288/280/265 289/279/265 291/282/263
f 288/280/265 291/282/263 290/283/263
f 356/276/263 357/284/266 334/285/266
f 356/276/263 334/285/266 335/251/263
f 290/283/263 291/282/263 293/271/262
f 290/283/263 293/271/262 292/286/262
f 351/284/267 352/276/268 339/251/268
f 351/284/267 339/251/268 340/285/267
f 292/286/262 293/271/262 295/270/228
f 292/286/262 295/270/228 294/287/228
f 289/279/9 287/277/9 358/288/9
f 289/279/9 358/288/9 357/284/9
f 294/287/228 295/270/228 297/271/269
f 294/287/228 297/271/269 296/286/269
f 361/281/260 362/264/257 329/267/257
f 361/281/260 329/267/257 330/289/260
f 296/286/269 297/271/269 299/282/268
f 296/286/269 299/282/268 298/283/268
f 309/262/9 307/268/9 348/259/9
f 309/262/9 348/259/9 347/281/9
f 298/283/268 299/282/268 301/279/267
f 298/283/268 301/279/267 300/280/267
f 305/274/9 303/277/9 350/288/9
f 305/274/9 350/288/9 349/258/9
f 300/280/267 301/279/267 303/277/270
f 300/280/267 303/277/270 302/278/270
f 293/271/9 291/282/9 356/276/9
f 293/271/9 356/276/9 355/272/9
f 302/278/270 303/277/270 305/274/271
f 302/278/270 305/274/271 304/275/271
f 287/277/9 285/274/9 359/258/9
f 287/277/9 359/258/9 358/288/9
f 304/275/271 305/274/271 307/268/272
f 304/275/271 307/268/272 306/269/272
f 297/271/9 295/270/9 354/273/9
f 297/271/9 354/273/9 353/272/9
f 306/269/272 307/268/272 309/262/273
f 306/269/272 309/262/273 308/263/273
f 354/273/228 355/272/262 336/250/262
f 354/273/228 336/250/262 337/290/228
f 301/279/9 299/282/9 352/276/9
f 301/279/9 352/276/9 351/284/9
f 308/263/273 309/262/273 311/256/274
f 308/263/273 311/256/274 310/257/274
f 307/268/9 305/274/9 349/258/9
f 307/268/9 349/258/9 348/259/9
f 310/257/274 311/256/274 277/255/121
f 310/257/274 277/255/121 276/254/121
f 276/254/9 278/257/9 280/263/9
f 276/254/9 280/263/9 282/269/9
f 276/254/9 282/269/9 284/275/9
f 276/254/9 284/275/9 286/278/9
f 276/254/9 286/278/9 288/280/9
f 276/254/9 288/280/9 290/283/9
f 276/254/9 290/283/9 292/286/9
f 276/254/9 292/286/9 294/287/9
f 276/254/9 294/287/9 296/286/9
f 276/254/9 296/286/9 298/283/9
f 276/254/9 298/283/9 300/280/9
f 276/254/9 300/280/9 302/278/9
f 276/254/9 302/278/9 304/275/9
f 276/254/9 304/275/9 306/269/9
f 276/254/9 306/269/9 308/263/9
f 276/254/9 308/263/9 310/257/9
f 346/264/274 347/281/273 344/291/273
f 346/264/274 344/291/273 345/267/274
f 352/276/268 353/272/269 338/250/269
f 352/276/268 338/250/269 339/251/268
f 347/281/273 348/259/275 343/260/272
f 347/281/273 343/260/272 344/291/273
f 349/258/271 350/288/270 341/292/270
f 349/258/271 341/292/270 342/261/271
f 303/277/9 301/279/9 351/284/9
f 303/277/9 351/284/9 350/288/9
f 353/272/269 354/273/228 337/290/228
f 353/272/269 337/290/228 338/250/269
f 363/265/121 346/264/274 345/267/274
f 363/265/121 345/267/274 328/266/121
f 360/259/259 361/281/260 330/289/260
f 360/259/259 330/289/260 331/260/259
f 350/288/270 351/284/267 340/285/267
f 350/288/270 340/285/267 341/292/270
f 334/285/276 357/284/276 382/284/276
f 334/285/276 382/284/276 387/285/276
f 277/255/9 311/256/9 346/264/9
f 277/255/9 346/264/9 363/265/9
f 299/282/9 297/271/9 353/272/9
f 299/282/9 353/272/9 352/276/9
f 281/262/9 279/256/9 362/264/9
f 281/262/9 362/264/9 361/281/9
f 291/282/9 289/279/9 357/284/9
f 291/282/9 357/284/9 356/276/9
f 359/258/277 332/261/277 385/261/277
f 359/258/277 385/261/277 386/258/277
f 283/268/9 281/262/9 361/281/9
f 283/268/9 361/281/9 360/259/9
f 279/256/9 277/255/9 363/265/9
f 279/256/9 363/265/9 362/264/9
f 348/259/275 349/258/271 342/261/271
f 348/259/275 342/261/271 343/260/272
f 332/261/75 331/260/278 324/293/278
f 332/261/75 324/293/278 323/294/75
f 344/291/75 343/260/278 312/295/278
f 344/291/75 312/295/278 275/296/75
f 329/267/278 328/266/278 327/297/278
f 329/267/278 327/297/278 326/298/278
f 345/267/278 344/291/75 275/296/75
f 345/267/278 275/296/75 274/298/278
f 342/261/75 341/292/75 314/299/75
f 342/261/75 314/299/75 313/294/75
f 330/289/75 329/267/278 326/298/278
f 330/289/75 326/298/278 325/296/75
f 333/292/75 332/261/75 323/294/75
f 333/292/75 323/294/75 322/299/75
f 338/250/256 337/290/256 318/300/256
f 338/250/256 318/300/256 317/253/256
f 343/260/278 342/261/75 313/294/75
f 343/260/278 313/294/75 312/295/278
f 334/285/278 333/292/75 322/299/75
f 334/285/278 322/299/75 321/301/278
f 341/292/75 340/285/278 315/301/278
f 341/292/75 315/301/278 314/299/75
f 337/290/256 336/250/256 319/253/256
f 337/290/256 319/253/256 318/300/256
f 340/285/278 339/251/75 316/252/75
f 340/285/278 316/252/75 315/301/278
f 339/251/75 338/250/256 317/253/256
f 339/251/75 317/253/256 316/252/75
f 328/266/278 345/267/278 274/298/278
f 328/266/278 274/298/278 327/297/278
f 331/260/278 330/289/75 325/296/75
f 331/260/278 325/296/75 324/293/278
f 335/251/75 334/285/278 321/301/278
f 335/251/75 321/301/278 320/252/75
f 315/301/267 316/252/268 370/302/268
f 315/301/267 370/302/268 369/303/267
f 324/293/259 325/296/260 379/304/260
f 324/293/259 379/304/260 378/305/259
f 274/298/274 275/296/273 365/304/273
f 274/298/274 365/304/273 364/306/274
f 321/301/265 322/299/264 376/307/264
f 321/301/265 376/307/264 375/303/265
f 312/295/272 313/294/271 367/308/271
f 312/295/272 367/308/271 366/305/272
f 320/252/263 321/301/265 375/303/265
f 320/252/263 375/303/265 374/302/263
f 325/296/260 326/298/257 380/306/257
f 325/296/260 380/306/257 379/304/260
f 313/294/271 314/299/270 368/307/270
f 313/294/271 368/307/270 367/308/271
f 318/300/228 319/253/262 373/309/262
f 318/300/228 373/309/262 372/310/228
f 327/297/121 274/298/274 364/306/274
f 327/297/121 364/306/274 381/311/121
f 314/299/270 315/301/267 369/303/267
f 314/299/270 369/303/267 368/307/270
f 275/296/273 312/295/272 366/305/272
f 275/296/273 366/305/272 365/304/273
f 316/252/268 317/253/269 371/309/269
f 316/252/268 371/309/269 370/302/268
f 322/299/264 323/294/261 377/308/261
f 322/299/264 377/308/261 376/307/264
f 319/253/262 320/252/263 374/302/263
f 319/253/262 374/302/263 373/309/262
f 326/298/257 327/297/121 381/311/121
f 326/298/257 381/311/121 380/306/257
f 317/253/269 318/300/228 372/310/228
f 317/253/269 372/310/228 371/309/269
f 323/294/261 324/293/259 378/305/259
f 323/294/261 378/305/259 377/308/261
f 365/304/75 366/305/75 367/308/75
f 365/304/75 367/308/75 368/307/75
f 365/304/75 368/307/75 369/303/75
f 365/304/75 369/303/75 370/302/75
f 365/304/75 370/302/75 371/309/75
f 365/304/75 371/309/75 372/310/75
f 365/304/75 372/310/75 373/309/75
f 365/304/75 373/309/75 374/302/75
f 365/304/75 374/302/75 375/303/75
f 365/304/75 375/303/75 376/307/75
f 365/304/75 376/307/75 377/308/75
f 365/304/75 377/308/75 378/305/75
f 365/304/75 378/305/75 379/304/75
f 365/304/75 379/304/75 380/306/75
f 365/304/75 380/306/75 381/311/75
f 365/304/75 381/311/75 364/306/75
f 383/288/49 386/258/49 385/261/49
f 383/288/49 385/261/49 384/292/49
f 382/284/49 383/288/49 384/292/49
f 382/284/49 384/292/49 387/285/49
f 357/284/9 358/288/9 383/288/9
f 357/284/9 383/288/9 382/284/9
f 358/288/9 359/258/9 386/258/279
f 358/288/9 386/258/279 383/288/9
f 332/261/75 333/292/75 384/292/75
f 332/261/75 384/292/75 385/261/256
f 333/292/75 334/285/278 387/285/278
f 333/292/75 387/285/278 384/292/75
f 388/312/280 389/313/280 391/314/280
f 388/312/280 391/314/280 390/315/280
f 390/315/281 391/314/281 393/316/281
f 390/315/281 393/316/281 392/317/281
f 392/317/282 393/316/282 395/318/282
f 392/317/282 395/318/282 394/319/282
f 394/319/283 395/318/283 397/320/283
f 394/319/283 397/320/283 396/321/283
f 396/321/284 397/320/284 399/322/284
f 396/321/284 399/322/284 398/323/284
f 398/323/285 399/322/285 389/313/285
f 398/323/285 389/313/285 388/312/285
f 388/312/286 390/315/286 392/317/286
f 388/312/286 392/317/286 394/319/286
f 388/312/286 394/319/286 396/321/286
f 388/312/286 396/321/286 398/323/286
f 400/312/287 402/315/287 403/314/287
f 400/312/287 403/314/287 401/313/287
f 402/315/288 404/317/288 405/316/288
f 402/315/288 405/316/288 403/314/288
f 404/317/289 406/319/289 407/318/289
f 404/317/289 407/318/289 405/316/289
f 406/319/290 408/321/290 409/320/290
f 406/319/290 409/320/290 407/318/290
f 408/321/291 410/323/291 411/322/291
f 408/321/291 411/322/291 409/320/291
f 410/323/292 400/312/292 401/313/292
f 410/323/292 401/313/292 411/322/292
f 400/312/293 410/323/293 408/321/293
f 400/312/293 408/321/293 406/319/293
f 400/312/293 406/319/293 404/317/293
f 400/312/293 404/317/293 402/315/293
f 413/324/294 415/325/295 414/325/295
f 413/324/294 414/325/295 412/324/294
f 415/325/295 417/326/296 416/326/296
f 415/325/295 416/326/296 414/325/295
f 445/327/297 447/328/298 446/328/298
f 445/327/297 446/328/298 444/327/297
f 438/329/299 439/329/299 441/330/300
f 438/329/299 441/330/300 440/330/300
f 442/331/301 443/331/301 445/327/297
f 442/331/301 445/327/297 444/327/297
f 419/332/302 421/329/299 420/329/299
f 419/332/302 420/329/299 418/332/302
f 432/325/295 433/325/295 435/326/296
f 432/325/295 435/326/296 434/326/296
f 421/329/299 423/330/300 422/330/300
f 421/329/299 422/330/300 420/329/299
f 430/324/294 431/324/294 433/325/295
f 430/324/294 433/325/295 432/325/295
f 436/332/302 437/332/302 439/329/299
f 436/332/302 439/329/299 438/329/299
f 440/330/300 441/330/300 443/331/301
f 440/330/300 443/331/301 442/331/301
f 425/331/301 427/327/297 426/327/297
f 425/331/301 426/327/297 424/331/301
f 417/326/296 419/332/302 418/332/302
f 417/326/296 418/332/302 416/326/296
f 431/324/294 430/324/294 446/328/298
f 431/324/294 446/328/298 447/328/298
f 430/324/92 432/325/92 434/326/92
f 430/324/92 434/326/92 436/332/92
f 430/324/92 436/332/92 438/329/92
f 430/324/92 438/329/92 440/330/92
f 430/324/92 440/330/92 442/331/92
f 430/324/92 442/331/92 444/327/92
f 430/324/92 444/327/92 446/328/92
f 423/330/300 425/331/301 424/331/301
f 423/330/300 424/331/301 422/330/300
f 427/327/297 429/328/298 428/328/298
f 427/327/297 428/328/298 426/327/297
f 434/326/296 435/326/296 437/332/302
f 434/326/296 437/332/302 436/332/302
f 413/324/49 429/328/49 427/327/49
f 413/324/49 427/327/49 425/331/49
f 413/324/49 425/331/49 423/330/49
f 413/324/49 423/330/49 421/329/49
f 413/324/49 421/329/49 419/332/49
f 413/324/49 419/332/49 417/326/49
f 413/324/49 417/326/49 415/325/49
f 428/328/298 429/328/298 413/324/294
f 428/328/298 413/324/294 412/324/294
o SPG62_roll
v 0.108514 0.551893 -0.454508
v -0.108518 0.551893 -0.454506
v 0.325547 0.551893 -0.454508
v -0.325550 0.551893 -0.454506
v -0.325550 0.551893 0.363113
v 0.325547 0.551893 0.363111
v -0.641126 0.551893 -0.280457
v -0.641125 0.551893 0.363113
v 0.641123 0.551893 0.363111
v 0.641123 0.551891 -0.280458
v 0.631964 0.374229 -0.295908
v 0.631964 0.374229 0.554045
v -0.631967 0.374229 -0.295906
v -0.631966 0.374229 0.554047
v 0.320896 0.374229 -0.467585
v -0.320900 0.374229 -0.467583
v 0.595735 1.306120 -0.450319
v 0.744301 1.306118 0.161016
v -0.744304 1.306118 0.161018
v -0.595738 1.306118 -0.450317
v 0.744301 1.306118 -0.378984
v -0.744304 1.306118 -0.378983
v 0.602675 1.306120 0.161016
v -0.602678 1.306118 0.161018
v 0.108515 0.551893 0.363111
v -0.320899 0.374229 0.733589
v 0.106964 0.374229 -0.467585
v 0.324469 0.499235 0.586943
v -0.324471 0.499235 0.586945
v -0.106968 0.374229 -0.467585
v -0.108517 0.551893 0.363113
v 0.320897 0.374229 0.733587
v 0.449418 1.306118 0.161016
v -0.449421 1.306118 0.161018
v -0.449421 1.306118 -0.450317
v 0.449418 1.306118 -0.450319
v -0.106967 0.374229 0.802229
v 0.106965 0.374229 0.802229
v 0.107984 0.477327 0.677511
v -0.107986 0.477327 0.677513
v 0.647569 1.737032 -0.478540
v 0.655840 1.737032 0.093229
v -0.647572 1.737030 -0.478539
v -0.655843 1.737030 0.093231
v -0.764099 1.737030 -0.426910
v 0.764095 1.737030 -0.426912
v -0.764098 1.737030 0.093231
v 0.764095 1.737030 0.093229
v -0.449421 1.737030 0.093231
v 0.449418 1.737030 -0.478540
v 0.449418 1.737030 0.093229
v -0.449421 1.737030 -0.478539
v 0.651893 2.168894 0.119658
v 0.655841 2.032368 0.227797
v 0.654213 2.142818 0.207907
v 0.655087 2.112616 0.231833
v 0.655647 2.074558 0.238684
v -0.655843 2.032366 0.227798
v -0.651896 2.168890 0.119659
v -0.655650 2.074556 0.238686
v -0.655089 2.112614 0.231834
v -0.654216 2.142817 0.207909
v -0.764098 2.032368 0.227798
v -0.764098 2.168892 0.119659
v -0.764098 2.074556 0.238686
v -0.764098 2.112616 0.231834
v -0.764098 2.142818 0.207909
v 0.764095 2.168892 0.119658
v 0.764095 2.032366 0.227797
v 0.764095 2.142817 0.207907
v 0.764095 2.112614 0.231833
v 0.764095 2.074556 0.238684
v -0.449421 2.168892 0.119659
v -0.449421 2.032366 0.227798
v -0.449421 2.142817 0.207909
v -0.449421 2.112614 0.231834
v -0.449421 2.074556 0.238686
v 0.449418 2.032366 0.227797
v 0.449418 2.168892 0.119658
v 0.449418 2.074554 0.238684
v 0.449418 2.112614 0.231833
v 0.449418 2.142817 0.207907
v 0.647569 2.085154 -0.146746
v 0.648132 2.134375 -0.075518
v 0.649608 2.164795 0.017141
v -0.647572 2.085152 -0.146744
v -0.649611 2.164793 0.017143
v -0.648135 2.134373 -0.075516
v -0.764099 2.083595 -0.112167
v -0.764098 2.164719 0.048988
v -0.764098 2.133732 -0.042458
v 0.764095 2.083595 -0.112169
v 0.764095 2.133730 -0.042459
v 0.764095 2.164717 0.048986
v 0.449418 2.085169 -0.146730
v 0.449418 2.164795 0.017080
v 0.449418 2.134380 -0.075525
v -0.449421 2.085169 -0.146729
v -0.449421 2.134380 -0.075523
v -0.449421 2.164795 0.017082
v -0.756743 1.808628 -0.121086
v -0.779128 1.808628 -0.121086
v -0.756743 1.827768 -0.087936
v -0.779128 1.827770 -0.087936
v -0.756743 1.821121 -0.050240
v -0.779128 1.821121 -0.050240
v -0.756743 1.791798 -0.025635
v -0.779128 1.791798 -0.025635
v -0.756743 1.753517 -0.025635
v -0.779128 1.753517 -0.025635
v -0.756743 1.724194 -0.050240
v -0.779128 1.724194 -0.050240
v -0.756743 1.717545 -0.087936
v -0.779128 1.717545 -0.087936
v -0.756743 1.736687 -0.121086
v -0.779128 1.736687 -0.121086
v -0.756743 1.772655 -0.134178
v -0.779128 1.772655 -0.134178
v 0.781289 1.772655 -0.025637
v 0.758905 1.772655 -0.025637
v 0.781289 1.736685 -0.038729
v 0.758905 1.736685 -0.038729
v 0.781289 1.717545 -0.071878
v 0.758905 1.717545 -0.071878
v 0.781289 1.724192 -0.109575
v 0.758905 1.724192 -0.109575
v 0.781289 1.753515 -0.134188
v 0.758904 1.753515 -0.134188
v 0.781289 1.791796 -0.134188
v 0.758905 1.791796 -0.134188
v 0.781289 1.821121 -0.109575
v 0.758905 1.821121 -0.109575
v 0.781289 1.827768 -0.071878
v 0.758905 1.827768 -0.071878
v 0.781289 1.808628 -0.038729
v 0.758905 1.808628 -0.038729
vn -0.0000 0.0734 -0.9973
vn -0.0000 0.0395 -0.9992
vn -0.0000 0.0359 -0.9994
vn -0.3487 0.6912 0.6329
vn -0.2563 0.7288 0.6349
vn -0.2950 0.7141 0.6349
vn 1.0000 -0.0000 -0.0000
vn 0.4824 0.0515 -0.8744
vn 0.4758 -0.0451 -0.8784
vn 0.4740 -0.0640 -0.8782
vn 0.9987 -0.0515 -0.0000
vn 0.9956 -0.0941 -0.0000
vn 0.9967 -0.0813 -0.0000
vn -0.4824 0.0515 -0.8744
vn -0.4740 -0.0640 -0.8782
vn -0.4758 -0.0451 -0.8784
vn -0.0000 0.2074 0.9783
vn -0.0000 0.2044 0.9789
vn -0.0000 -0.1397 0.9902
vn -0.0000 -0.1353 0.9908
vn 0.4393 -0.1410 -0.8872
vn 0.4421 -0.1447 -0.8852
vn 0.4180 -0.1144 -0.9012
vn -0.9987 -0.0515 -0.0000
vn -0.9967 -0.0813 -0.0000
vn -0.9956 -0.0941 -0.0000
vn -0.0000 0.2588 0.9659
vn -0.0000 0.2246 0.9744
vn 0.0006 0.9731 0.2304
vn 0.0006 0.9733 0.2295
vn 0.0008 0.9733 0.2297
vn 0.0005 0.9731 0.2305
vn -0.4393 -0.1410 -0.8872
vn -0.4421 -0.1447 -0.8852
vn -0.9953 -0.0965 -0.0000
vn -0.9962 -0.0874 -0.0000
vn 0.9962 -0.0874 -0.0000
vn 0.9953 -0.0965 -0.0000
vn -0.0000 -0.0181 -0.9998
vn -0.0000 -0.0356 -0.9994
vn 0.0900 0.7645 0.6383
vn 0.1090 0.7624 0.6379
vn -0.1090 0.7624 0.6379
vn -0.0900 0.7645 0.6383
vn 0.2563 0.7288 0.6349
vn 0.2950 0.7141 0.6349
vn -0.0000 0.9734 0.2290
vn 0.3487 0.6912 0.6329
vn -0.0006 0.9733 0.2295
vn -0.0008 0.9733 0.2297
vn -0.0006 0.9731 0.2304
vn -0.0005 0.9731 0.2305
vn -1.0000 -0.0000 -0.0000
vn -0.0000 1.0000 -0.0000
vn -0.0000 0.6899 -0.7239
vn -0.1206 0.6811 -0.7222
vn -0.1132 0.7478 -0.6542
vn -0.0000 0.7603 -0.6496
vn -0.0000 -0.3335 0.9427
vn 0.0288 0.9810 -0.1921
vn 0.0698 0.8868 -0.4569
vn -0.0000 0.8956 -0.4448
vn -0.0000 0.9841 -0.1777
vn -0.0000 -0.0654 -0.9979
vn -0.9998 -0.0213 -0.0000
vn -0.9996 -0.0292 -0.0000
vn -0.4180 -0.1144 -0.9012
vn 0.9996 -0.0292 -0.0000
vn 0.9998 -0.0213 -0.0000
vn -0.2654 0.6568 -0.7058
vn -0.2145 0.7448 -0.6319
vn -0.0288 0.9810 -0.1921
vn -0.0698 0.8868 -0.4569
vn -0.1276 0.8950 -0.4274
vn -0.0428 0.9860 -0.1610
vn -0.0001 0.8956 -0.4448
vn 0.2655 0.6568 -0.7058
vn 0.1206 0.6811 -0.7222
vn 0.1132 0.7478 -0.6542
vn 0.2145 0.7448 -0.6319
vn 0.0018 0.9926 0.1214
vn -0.0000 0.8287 0.5597
vn 0.0036 0.9928 0.1194
vn -0.0000 0.4114 0.9114
vn -0.0000 -0.0372 0.9993
vn -0.0018 0.9926 0.1214
vn -0.0000 0.9924 0.1234
vn -0.0000 -0.0000 1.0000
vn -0.0000 -0.6428 0.7661
vn 0.0428 0.9860 -0.1610
vn 0.1276 0.8950 -0.4274
vn -0.0036 0.9928 0.1195
vn -0.0000 -0.6428 -0.7661
vn -0.0000 -0.9848 -0.1737
vn -0.0000 -0.8660 0.5000
vn -0.0000 -0.3420 0.9397
vn -0.0000 0.3420 0.9397
vn -0.0000 0.8660 0.5000
vn -0.0000 0.9848 -0.1737
vn -0.0000 0.6428 -0.7661
vn -0.0000 -0.0000 -1.0000
vn -0.0000 0.9848 0.1737
vn -0.0000 0.6428 0.7661
vn -0.0000 0.8661 -0.4999
vn -0.0000 0.3421 -0.9397
vn -0.0000 -0.3421 -0.9397
vn -0.0000 -0.8661 -0.4999
vn -0.0000 -0.9848 0.1737
vt 0.118427 0.376545
vt 0.118177 0.436393
vt 0.083243 0.436393
vt 0.083992 0.376545
vt 0.299887 0.376746
vt 0.349958 0.376746
vt 0.349383 0.418856
vt 0.298413 0.436595
vt 0.717318 0.692240
vt 0.630498 0.692240
vt 0.626491 0.834414
vt 0.707690 0.834414
vt 0.032447 0.436393
vt 0.033921 0.376545
vt 0.549065 0.375230
vt 0.551315 0.435350
vt 0.645055 0.435350
vt 0.672866 0.375230
vt 0.237367 0.376545
vt 0.238842 0.436393
vt 0.188046 0.436393
vt 0.187297 0.376545
vt 0.498619 0.690665
vt 0.521416 0.690665
vt 0.524602 0.835822
vt 0.507177 0.835822
vt 0.015839 0.690463
vt 0.039753 0.690463
vt 0.031409 0.835620
vt 0.012653 0.835620
vt 0.454012 0.436595
vt 0.473950 0.690665
vt 0.419078 0.436595
vt 0.384144 0.436595
vt 0.349209 0.436595
vt 0.384229 0.411476
vt 0.255450 0.690463
vt 0.231536 0.690463
vt 0.615619 0.690579
vt 0.536963 0.690579
vt 0.304602 0.690665
vt 0.281805 0.690665
vt 0.504808 0.436595
vt 0.329271 0.690665
vt 0.063304 0.690463
vt 0.153111 0.436393
vt 0.207984 0.690463
vt 0.418828 0.376746
vt 0.418992 0.411476
vt 0.384393 0.376746
vt 0.453263 0.376746
vt 0.453838 0.418856
vt 0.503334 0.376746
vt 0.205030 0.691611
vt 0.205030 0.861928
vt 0.066035 0.861928
vt 0.066035 0.691611
vt 0.152862 0.376545
vt 0.726801 0.931857
vt 0.728347 0.945776
vt 0.727374 0.958333
vt 0.723976 0.968298
vt 0.711443 0.976902
vt 0.696876 0.975549
vt 0.683724 0.965515
vt 0.673612 0.949278
vt 0.207984 0.835620
vt 0.239879 0.835620
vt 0.239879 0.952889
vt 0.207984 0.952895
vt 0.524602 0.935309
vt 0.507177 0.935309
vt 0.031081 0.979717
vt 0.031319 0.969470
vt 0.063304 0.969472
vt 0.063304 0.979718
vt 0.605745 0.836398
vt 0.529983 0.836398
vt 0.329271 0.835822
vt 0.296044 0.835822
vt 0.278619 0.835822
vt 0.258636 0.835620
vt 0.063304 0.835620
vt 0.605744 0.836398
vt 0.473950 0.835822
vt 0.329271 0.935309
vt 0.296044 0.935309
vt 0.278619 0.935309
vt 0.473950 0.935309
vt 0.258636 0.952365
vt 0.625346 0.936339
vt 0.626932 0.950615
vt 0.625933 0.963495
vt 0.622448 0.973715
vt 0.609594 0.982539
vt 0.599300 0.981126
vt 0.585981 0.970640
vt 0.575827 0.953675
vt 0.240207 0.979717
vt 0.239970 0.969470
vt 0.258636 0.969254
vt 0.258636 0.979692
vt 0.207984 0.979718
vt 0.207984 0.969472
vt 0.031409 0.952889
vt 0.012653 0.952365
vt 0.728348 0.945776
vt 0.030713 0.981098
vt 0.030340 0.972314
vt 0.012653 0.972314
vt 0.012653 0.981098
vt 0.296306 0.972515
vt 0.278619 0.972515
vt 0.278619 0.962341
vt 0.296166 0.962341
vt 0.278619 0.949521
vt 0.296075 0.949521
vt 0.240575 0.981098
vt 0.240949 0.972314
vt 0.207984 0.972314
vt 0.207984 0.981098
vt 0.524602 0.972515
vt 0.506915 0.972515
vt 0.507055 0.962341
vt 0.524602 0.962341
vt 0.507146 0.949521
vt 0.524602 0.949521
vt 0.063304 0.981098
vt 0.063304 0.972314
vt 0.329271 0.972515
vt 0.329271 0.962341
vt 0.329271 0.949521
vt 0.588431 0.771607
vt 0.586524 0.761129
vt 0.473950 0.972515
vt 0.473950 0.962341
vt 0.473950 0.949521
vt 0.012653 0.979692
vt 0.012653 0.969254
vt 0.063304 0.952895
vt 0.258636 0.981098
vt 0.258636 0.972314
vt 0.581695 0.755553
vt 0.576205 0.757489
vt 0.572621 0.766032
vt 0.572621 0.777184
vt 0.576205 0.785726
vt 0.581695 0.787663
vt 0.586524 0.782086
s 1
usemtl spg62
f 474/333/303 448/334/304 450/335/305
f 474/333/303 450/335/305 462/336/303
f 461/337/306 473/338/307 476/339/308
f 461/337/306 476/339/308 455/340/306
f 481/341/309 482/342/309 499/343/309
f 481/341/309 499/343/309 496/344/309
f 462/336/310 450/335/311 457/345/312
f 462/336/310 457/345/312 458/346/310
f 458/347/313 457/348/314 456/349/315
f 458/347/313 456/349/315 459/350/313
f 460/351/316 454/352/317 451/353/318
f 460/351/316 451/353/318 463/354/316
f 470/355/319 465/356/320 495/357/321
f 470/355/319 495/357/321 489/358/322
f 468/359/323 464/360/324 488/361/325
f 468/359/323 488/361/325 493/362/325
f 461/350/326 455/349/327 454/348/328
f 461/350/326 454/348/328 460/347/326
f 453/363/329 470/355/319 480/364/330
f 453/363/329 480/364/330 472/365/329
f 478/366/331 452/367/332 476/339/333
f 478/366/331 476/339/333 487/368/334
f 454/352/317 469/369/335 467/370/336
f 454/352/317 467/370/336 451/353/318
f 450/335/311 464/360/324 468/359/323
f 450/335/311 468/359/323 457/345/312
f 455/349/327 466/371/337 469/372/338
f 455/349/327 469/372/338 454/348/328
f 452/367/329 471/373/319 466/374/320
f 452/367/329 466/374/320 455/340/329
f 457/348/314 468/372/339 465/371/340
f 457/348/314 465/371/340 456/349/315
f 456/375/329 465/356/320 470/355/319
f 456/375/329 470/355/319 453/363/329
f 478/366/329 481/376/330 471/373/319
f 478/366/329 471/373/319 452/367/329
f 448/334/304 483/377/341 464/360/342
f 448/334/304 464/360/342 450/335/305
f 449/378/304 482/379/341 483/377/341
f 449/378/304 483/377/341 448/334/304
f 485/380/343 486/381/344 487/368/345
f 485/380/343 487/368/345 484/382/346
f 484/382/346 487/368/345 476/339/308
f 484/382/346 476/339/308 473/338/307
f 451/353/305 467/370/342 482/379/341
f 451/353/305 482/379/341 449/378/304
f 479/383/347 475/384/348 486/381/344
f 479/383/347 486/381/344 485/380/343
f 455/340/349 476/339/333 452/367/332
f 459/385/350 456/375/350 475/384/348
f 459/385/350 475/384/348 479/383/347
f 453/363/351 475/384/352 456/375/349
f 472/365/329 480/364/330 481/376/330
f 472/365/329 481/376/330 478/366/329
f 453/363/351 472/365/353 486/381/354
f 453/363/351 486/381/354 475/384/352
f 472/365/353 478/366/331 487/368/334
f 472/365/353 487/368/334 486/381/354
f 483/342/355 480/341/355 498/344/355
f 483/342/355 498/344/355 497/343/355
f 480/386/356 483/387/356 482/388/356
f 480/386/356 482/388/356 481/389/356
f 463/354/303 451/353/305 449/378/304
f 463/354/303 449/378/304 477/390/303
f 477/390/303 449/378/304 448/334/304
f 477/390/303 448/334/304 474/333/303
f 497/343/355 498/344/355 525/391/355
f 497/343/355 525/391/355 527/392/355
f 497/343/355 527/392/355 528/393/355
f 497/343/355 528/393/355 529/394/355
f 497/343/355 529/394/355 526/395/355
f 497/343/355 526/395/355 543/396/355
f 497/343/355 543/396/355 544/397/355
f 497/343/355 544/397/355 542/398/355
f 499/399/357 490/400/358 533/401/359
f 499/399/357 533/401/359 545/402/360
f 489/358/322 495/357/321 516/403/361
f 489/358/322 516/403/361 501/404/361
f 532/405/362 531/406/363 544/407/364
f 532/405/362 544/407/364 543/408/365
f 482/379/341 467/370/342 490/400/366
f 482/379/341 490/400/366 499/399/366
f 469/372/338 466/371/337 494/409/367
f 469/372/338 494/409/367 492/410/368
f 471/373/319 481/376/330 496/411/322
f 471/373/319 496/411/322 491/412/322
f 466/374/320 471/373/319 491/412/322
f 466/374/320 491/412/322 494/413/321
f 467/370/336 469/369/335 492/414/369
f 467/370/336 492/414/369 490/400/369
f 464/360/342 483/377/341 497/415/366
f 464/360/342 497/415/366 488/361/366
f 465/371/340 468/372/339 493/410/370
f 465/371/340 493/410/370 495/416/371
f 480/364/330 470/355/319 489/358/322
f 480/364/330 489/358/322 498/417/322
f 491/412/322 496/411/322 521/418/361
f 491/412/322 521/418/361 505/419/361
f 494/413/321 491/412/322 505/419/361
f 494/413/321 505/419/361 510/420/361
f 498/417/322 489/358/322 501/404/361
f 498/417/322 501/404/361 525/421/361
f 490/400/358 492/414/372 536/422/373
f 490/400/358 536/422/373 533/401/359
f 492/410/368 494/409/367 510/423/355
f 492/410/368 510/423/355 512/424/355
f 492/410/368 512/424/355 513/425/355
f 492/410/368 513/425/355 514/426/355
f 492/410/368 514/426/355 511/427/355
f 492/410/368 511/427/355 537/428/355
f 492/410/368 537/428/355 538/429/355
f 492/410/368 538/429/355 536/430/355
f 495/416/371 493/410/370 539/430/309
f 495/416/371 539/430/309 540/429/309
f 495/416/371 540/429/309 541/428/309
f 495/416/371 541/428/309 515/427/309
f 495/416/371 515/427/309 517/426/309
f 495/416/371 517/426/309 518/425/309
f 495/416/371 518/425/309 519/424/309
f 495/416/371 519/424/309 516/423/309
f 534/431/374 535/432/375 538/433/376
f 534/431/374 538/433/376 537/434/377
f 547/435/365 546/436/378 535/432/375
f 547/435/365 535/432/375 534/431/374
f 493/362/379 488/361/380 530/437/381
f 493/362/379 530/437/381 539/438/382
f 496/344/309 499/343/309 545/398/309
f 496/344/309 545/398/309 546/397/309
f 496/344/309 546/397/309 547/396/309
f 496/344/309 547/396/309 520/395/309
f 496/344/309 520/395/309 522/394/309
f 496/344/309 522/394/309 523/393/309
f 496/344/309 523/393/309 524/439/309
f 496/344/309 524/439/309 521/391/309
f 500/440/383 502/441/384 517/442/384
f 500/440/383 517/442/384 515/443/385
f 509/444/384 514/445/384 513/446/386
f 509/444/384 513/446/386 508/447/386
f 508/447/386 513/446/386 512/448/387
f 508/447/386 512/448/387 507/449/387
f 507/449/387 512/448/387 510/420/361
f 507/449/387 510/420/361 505/419/361
f 506/450/388 509/451/384 522/452/384
f 506/450/388 522/452/384 520/453/389
f 517/454/384 502/455/384 503/456/386
f 517/454/384 503/456/386 518/457/386
f 518/457/386 503/456/386 504/458/387
f 518/457/386 504/458/387 519/459/387
f 519/459/387 504/458/387 501/404/361
f 519/459/387 501/404/361 516/403/361
f 526/460/389 529/461/384 502/441/384
f 526/460/389 502/441/384 500/440/383
f 522/462/384 509/444/384 508/447/386
f 522/462/384 508/447/386 523/463/386
f 523/463/386 508/447/386 507/449/387
f 523/463/386 507/449/387 524/464/387
f 524/464/387 507/449/387 505/419/361
f 524/464/387 505/419/361 521/418/361
f 566/465/390 567/465/390 569/466/391
f 566/465/390 569/466/391 568/466/391
f 502/455/384 529/467/384 528/468/386
f 502/455/384 528/468/386 503/456/386
f 503/456/386 528/468/386 527/469/387
f 503/456/386 527/469/387 504/458/387
f 504/458/387 527/469/387 525/421/361
f 504/458/387 525/421/361 501/404/361
f 541/470/392 540/471/393 531/406/363
f 541/470/392 531/406/363 532/405/362
f 541/470/392 532/405/362 500/440/383
f 541/470/392 500/440/383 515/443/385
f 540/471/393 539/438/382 530/437/381
f 540/471/393 530/437/381 531/406/363
f 532/405/362 543/408/365 526/460/389
f 532/405/362 526/460/389 500/440/383
f 531/406/363 530/437/381 542/472/360
f 531/406/363 542/472/360 544/407/364
f 547/435/365 534/431/374 506/450/388
f 547/435/365 506/450/388 520/453/389
f 546/436/378 545/402/360 533/401/359
f 546/436/378 533/401/359 535/432/375
f 535/432/375 533/401/359 536/422/373
f 535/432/375 536/422/373 538/433/376
f 511/473/394 514/474/384 509/451/384
f 511/473/394 509/451/384 506/450/388
f 488/361/380 497/415/357 542/472/360
f 488/361/380 542/472/360 530/437/381
f 565/465/355 563/466/355 561/475/355
f 565/465/355 561/475/355 559/476/355
f 565/465/355 559/476/355 557/477/355
f 565/465/355 557/477/355 555/478/355
f 565/465/355 555/478/355 553/479/355
f 565/465/355 553/479/355 551/480/355
f 565/465/355 551/480/355 549/481/355
f 563/466/395 562/466/395 560/475/396
f 563/466/395 560/475/396 561/475/396
f 561/475/396 560/475/396 558/476/397
f 561/475/396 558/476/397 559/476/397
f 559/476/397 558/476/397 556/477/398
f 559/476/397 556/477/398 557/477/398
f 534/431/374 537/434/377 511/473/394
f 534/431/374 511/473/394 506/450/388
f 557/477/398 556/477/398 554/478/399
f 557/477/398 554/478/399 555/478/399
f 555/478/399 554/478/399 552/479/400
f 555/478/399 552/479/400 553/479/400
f 553/479/400 552/479/400 550/480/401
f 553/479/400 550/480/401 551/480/401
f 548/481/402 564/465/403 565/465/403
f 548/481/402 565/465/403 549/481/402
f 550/480/401 548/481/402 549/481/402
f 550/480/401 549/481/402 551/480/401
f 581/480/404 583/481/405 582/481/405
f 581/480/404 582/481/405 580/480/404
f 583/481/405 567/465/390 566/465/390
f 583/481/405 566/465/390 582/481/405
f 578/479/406 579/479/406 581/480/404
f 578/479/406 581/480/404 580/480/404
f 576/478/407 577/478/407 579/479/406
f 576/478/407 579/479/406 578/479/406
f 574/477/408 575/477/408 577/478/407
f 574/477/408 577/478/407 576/478/407
f 572/476/409 573/476/409 575/477/408
f 572/476/409 575/477/408 574/477/408
f 570/475/410 571/475/410 573/476/409
f 570/475/410 573/476/409 572/476/409
f 568/466/391 569/466/391 571/475/410
f 568/466/391 571/475/410 570/475/410
f 565/465/403 564/465/403 562/466/395
f 565/465/403 562/466/395 563/466/395
f 566/465/309 568/466/309 570/475/309
f 566/465/309 570/475/309 572/476/309
f 566/465/309 572/476/309 574/477/309
f 566/465/309 574/477/309 576/478/309
f 566/465/309 576/478/309 578/479/309
f 566/465/309 578/479/309 580/480/309
f 566/465/309 580/480/309 582/481/309
o SPG62_base
v -0.000001 -0.042835 1.018370
v -0.448465 -0.042835 0.898209
v -0.776765 -0.042835 0.569908
v -0.896931 -0.042833 0.121445
v -0.776765 -0.042835 -0.327019
v -0.448467 -0.042835 -0.655319
v -0.000002 -0.042835 -0.775484
v 0.448462 -0.042835 -0.655321
v 0.776762 -0.042835 -0.327021
v 0.896928 -0.042837 0.121443
v 0.776763 -0.042835 0.569906
v 0.448464 -0.042835 0.898207
v -0.000001 0.270205 1.018370
v -0.448465 0.270205 0.898209
v -0.776765 0.270206 0.569908
v -0.896931 0.270206 0.121445
v -0.776765 0.270205 -0.327019
v -0.448467 0.270205 -0.655319
v -0.000002 0.270205 -0.775484
v 0.448462 0.270205 -0.655321
v 0.776762 0.270203 -0.327021
v 0.896928 0.270203 0.121443
v 0.776763 0.270203 0.569906
v 0.448464 0.270205 0.898207
v -0.485275 0.388987 0.961967
v -0.000001 0.388988 1.091993
v -0.000001 0.321547 1.091993
v -0.840520 0.388988 0.606720
v -0.970549 0.388988 0.121445
v -0.840520 0.388988 -0.363823
v -0.485276 0.388987 -0.719070
v -0.000002 0.388988 -0.849100
v 0.485272 0.388988 -0.719072
v 0.840517 0.388987 -0.363825
v 0.970546 0.388987 0.121443
v 0.840518 0.388987 0.606718
v 0.485274 0.388988 0.961966
v -0.485275 0.321547 0.961967
v -0.840520 0.321548 0.606720
v -0.970549 0.321548 0.121445
v -0.840520 0.321548 -0.363823
v -0.485276 0.321547 -0.719070
v -0.000002 0.321547 -0.849100
v 0.485272 0.321547 -0.719072
v 0.840517 0.321545 -0.363825
v 0.970546 0.321545 0.121443
v 0.840518 0.321545 0.606718
v 0.485273 0.321547 0.961966
vn -0.0000 -0.8202 0.5720
vn 0.2860 -0.8202 0.4954
vn -0.2860 -0.8202 -0.4954
vn -0.4954 -0.8202 -0.2860
vn -0.0000 -0.8202 -0.5721
vn 0.2860 -0.8202 -0.4954
vn 0.5000 -0.0000 0.8660
vn -0.0000 -0.0000 1.0000
vn 0.8660 -0.0000 0.5000
vn 1.0000 -0.0000 -0.0000
vn 0.8660 -0.0000 -0.5000
vn 0.5000 -0.0000 -0.8660
vn -0.0000 -0.0000 -1.0000
vn -0.5000 -0.0000 -0.8660
vn -0.8660 -0.0000 -0.5000
vn -1.0000 -0.0000 -0.0000
vn -0.8660 -0.0000 0.5000
vn -0.5000 -0.0000 0.8660
vn -0.5720 -0.8202 -0.0000
vn 0.4954 -0.8202 0.2860
vn -0.4954 -0.8202 0.2860
vn -0.0000 1.0000 -0.0000
vn 0.5720 -0.8202 -0.0000
vn -0.2860 -0.8202 0.4954
vn 0.4954 -0.8202 -0.2860
vt 0.145995 0.314991
vt 0.210148 0.314991
vt 0.215414 0.332053
vt 0.145995 0.332053
vt 0.081840 0.314991
vt 0.034877 0.314991
vt 0.025756 0.332053
vt 0.076575 0.332053
vt 0.210148 0.210952
vt 0.145995 0.210952
vt 0.257112 0.210952
vt 0.257112 0.314991
vt 0.274302 0.210952
vt 0.274302 0.314991
vt 0.081840 0.210952
vt 0.034877 0.210952
vt 0.017687 0.210952
vt 0.017687 0.314991
vt 0.081841 0.210952
vt 0.081841 0.314991
vt 0.145995 0.354467
vt 0.076575 0.354467
vt 0.025756 0.354467
vt 0.007155 0.354467
vt 0.007155 0.332053
vt 0.215414 0.354467
vt 0.266233 0.354467
vt 0.266233 0.332053
vt 0.284833 0.354467
vt 0.284833 0.332053
vt 0.881602 0.060728
vt 0.917376 0.041557
vt 0.953150 0.060728
vt 0.979338 0.113104
vt 0.988924 0.184652
vt 0.979338 0.256198
vt 0.953150 0.308575
vt 0.917376 0.327746
vt 0.881602 0.308575
vt 0.855414 0.256198
vt 0.845829 0.184652
vt 0.855414 0.113104
s 1
usemtl spg62
f 596/482/411 607/483/412 631/484/412
f 596/482/411 631/484/412 610/485/411
f 601/486/413 600/487/414 624/488/414
f 601/486/413 624/488/414 625/489/413
f 602/482/415 601/486/413 625/489/413
f 602/482/415 625/489/413 626/485/415
f 603/483/416 602/482/415 626/485/415
f 603/483/416 626/485/415 627/484/416
f 595/490/417 607/483/417 596/482/418
f 595/490/417 596/482/418 584/491/418
f 594/492/419 606/493/419 607/483/417
f 594/492/419 607/483/417 595/490/417
f 593/494/420 605/495/420 606/493/419
f 593/494/420 606/493/419 594/492/419
f 592/492/421 604/493/421 605/495/420
f 592/492/421 605/495/420 593/494/420
f 591/490/422 603/483/422 604/493/421
f 591/490/422 604/493/421 592/492/421
f 590/491/423 602/482/423 603/483/422
f 590/491/423 603/483/422 591/490/422
f 589/496/424 601/486/424 602/482/423
f 589/496/424 602/482/423 590/491/423
f 588/497/425 600/487/425 601/486/424
f 588/497/425 601/486/424 589/496/424
f 587/498/426 599/499/426 600/487/425
f 587/498/426 600/487/425 588/497/425
f 586/497/427 598/487/427 599/499/426
f 586/497/427 599/499/426 587/498/426
f 585/500/428 597/501/428 598/487/427
f 585/500/428 598/487/427 586/497/427
f 584/491/418 596/482/418 597/501/428
f 584/491/418 597/501/428 585/500/428
f 610/485/418 609/502/418 608/503/428
f 610/485/418 608/503/428 621/489/428
f 621/489/428 608/503/428 611/504/427
f 621/489/428 611/504/427 622/488/427
f 622/488/427 611/504/427 612/505/426
f 622/488/427 612/505/426 623/506/426
f 623/506/426 612/505/426 613/504/425
f 623/506/426 613/504/425 624/488/425
f 624/488/425 613/504/425 614/503/424
f 624/488/425 614/503/424 625/489/424
f 625/489/424 614/503/424 615/502/423
f 625/489/424 615/502/423 626/485/423
f 626/485/423 615/502/423 616/507/422
f 626/485/423 616/507/422 627/484/422
f 627/484/422 616/507/422 617/508/421
f 627/484/422 617/508/421 628/509/421
f 628/509/421 617/508/421 618/510/420
f 628/509/421 618/510/420 629/511/420
f 629/511/420 618/510/420 619/508/419
f 629/511/420 619/508/419 630/509/419
f 630/509/419 619/508/419 620/507/417
f 630/509/419 620/507/417 631/484/417
f 631/484/417 620/507/417 609/502/418
f 631/484/417 609/502/418 610/485/418
f 600/487/414 599/499/429 623/506/429
f 600/487/414 623/506/429 624/488/414
f 607/483/412 606/493/430 630/509/430
f 607/483/412 630/509/430 631/484/412
f 599/499/429 598/487/431 622/488/431
f 599/499/429 622/488/431 623/506/429
f 608/512/432 609/513/432 620/514/432
f 608/512/432 620/514/432 619/515/432
f 608/512/432 619/515/432 618/516/432
f 608/512/432 618/516/432 617/517/432
f 608/512/432 617/517/432 616/518/432
f 608/512/432 616/518/432 615/519/432
f 608/512/432 615/519/432 614/520/432
f 608/512/432 614/520/432 613/521/432
f 608/512/432 613/521/432 612/522/432
f 608/512/432 612/522/432 611/523/432
f 606/493/430 605/495/433 629/511/433
f 606/493/430 629/511/433 630/509/430
f 598/487/431 597/501/434 621/489/434
f 598/487/431 621/489/434 622/488/431
f 605/495/433 604/493/435 628/509/435
f 605/495/433 628/509/435 629/511/433
f 597/501/434 596/482/411 610/485/411
f 597/501/434 610/485/411 621/489/434
f 604/493/435 603/483/416 627/484/416
f 604/493/435 627/484/416 628/509/435
