# Blender 4.5.3 LTS
# www.blender.org
mtllib collection.mtl
o Nozzle_Housing
v 0.000000 -0.005000 -0.475000
v 0.000000 0.445000 -0.475000
v 0.046558 -0.005000 -0.472713
v 0.046558 0.445000 -0.472713
v 0.092668 -0.005000 -0.465873
v 0.092668 0.445000 -0.465873
v 0.137885 -0.005000 -0.454547
v 0.137885 0.445000 -0.454547
v 0.181775 -0.005000 -0.438843
v 0.181775 0.445000 -0.438843
v 0.223913 -0.005000 -0.418913
v 0.223913 0.445000 -0.418913
v 0.263896 -0.005000 -0.394948
v 0.263896 0.445000 -0.394948
v 0.301337 -0.005000 -0.367180
v 0.301337 0.445000 -0.367180
v 0.335876 -0.005000 -0.335876
v 0.335876 0.445000 -0.335876
v 0.367180 -0.005000 -0.301337
v 0.367180 0.445000 -0.301337
v 0.394948 -0.005000 -0.263896
v 0.394948 0.445000 -0.263896
v 0.418913 -0.005000 -0.223913
v 0.418913 0.445000 -0.223913
v 0.438843 -0.005000 -0.181775
v 0.438843 0.445000 -0.181775
v 0.454547 -0.005000 -0.137885
v 0.454547 0.445000 -0.137885
v 0.465873 -0.005000 -0.092668
v 0.465873 0.445000 -0.092668
v 0.472713 -0.005000 -0.046558
v 0.472713 0.445000 -0.046558
v 0.475000 -0.005000 0.000000
v 0.475000 0.445000 0.000000
v 0.472713 -0.005000 0.046558
v 0.472713 0.445000 0.046558
v 0.465873 -0.005000 0.092668
v 0.465873 0.445000 0.092668
v 0.454547 -0.005000 0.137885
v 0.454547 0.445000 0.137885
v 0.438843 -0.005000 0.181775
v 0.438843 0.445000 0.181775
v 0.418913 -0.005000 0.223913
v 0.418913 0.445000 0.223913
v 0.394948 -0.005000 0.263896
v 0.394948 0.445000 0.263896
v 0.367180 -0.005000 0.301337
v 0.367180 0.445000 0.301337
v 0.335876 -0.005000 0.335876
v 0.335876 0.445000 0.335876
v 0.301337 -0.005000 0.367180
v 0.301337 0.445000 0.367180
v 0.263896 -0.005000 0.394948
v 0.263896 0.445000 0.394948
v 0.223913 -0.005000 0.418913
v 0.223913 0.445000 0.418913
v 0.181775 -0.005000 0.438843
v 0.181775 0.445000 0.438843
v 0.137885 -0.005000 0.454547
v 0.137885 0.445000 0.454547
v 0.092668 -0.005000 0.465873
v 0.092668 0.445000 0.465873
v 0.046558 -0.005000 0.472713
v 0.046558 0.445000 0.472713
v 0.000000 -0.005000 0.475000
v 0.000000 0.445000 0.475000
v -0.046558 -0.005000 0.472713
v -0.046558 0.445000 0.472713
v -0.092668 -0.005000 0.465873
v -0.092668 0.445000 0.465873
v -0.137885 -0.005000 0.454547
v -0.137885 0.445000 0.454547
v -0.181775 -0.005000 0.438843
v -0.181775 0.445000 0.438843
v -0.223913 -0.005000 0.418913
v -0.223913 0.445000 0.418913
v -0.263896 -0.005000 0.394948
v -0.263896 0.445000 0.394948
v -0.301337 -0.005000 0.367180
v -0.301337 0.445000 0.367180
v -0.335876 -0.005000 0.335876
v -0.335876 0.445000 0.335876
v -0.367180 -0.005000 0.301337
v -0.367180 0.445000 0.301337
v -0.394948 -0.005000 0.263896
v -0.394948 0.445000 0.263896
v -0.418913 -0.005000 0.223913
v -0.418913 0.445000 0.223913
v -0.438843 -0.005000 0.181775
v -0.438843 0.445000 0.181775
v -0.454547 -0.005000 0.137885
v -0.454547 0.445000 0.137885
v -0.465873 -0.005000 0.092668
v -0.465873 0.445000 0.092668
v -0.472713 -0.005000 0.046558
v -0.472713 0.445000 0.046558
v -0.475000 -0.005000 0.000000
v -0.475000 0.445000 0.000000
v -0.472713 -0.005000 -0.046558
v -0.472713 0.445000 -0.046558
v -0.465873 -0.005000 -0.092668
v -0.465873 0.445000 -0.092668
v -0.454547 -0.005000 -0.137885
v -0.454547 0.445000 -0.137885
v -0.438843 -0.005000 -0.181775
v -0.438843 0.445000 -0.181775
v -0.418913 -0.005000 -0.223913
v -0.418913 0.445000 -0.223913
v -0.394948 -0.005000 -0.263896
v -0.394948 0.445000 -0.263896
v -0.367180 -0.005000 -0.301337
v -0.367180 0.445000 -0.301337
v -0.335876 -0.005000 -0.335876
v -0.335876 0.445000 -0.335876
v -0.301337 -0.005000 -0.367180
v -0.301337 0.445000 -0.367180
v -0.263896 -0.005000 -0.394948
v -0.263896 0.445000 -0.394948
v -0.223913 -0.005000 -0.418913
v -0.223913 0.445000 -0.418913
v -0.181775 -0.005000 -0.438843
v -0.181775 0.445000 -0.438843
v -0.137885 -0.005000 -0.454547
v -0.137885 0.445000 -0.454547
v -0.092668 -0.005000 -0.465873
v -0.092668 0.445000 -0.465873
v -0.046558 -0.005000 -0.472713
v -0.046558 0.445000 -0.472713
v 0.000000 -0.005000 -0.455000
v 0.000000 0.424113 -0.460644
v 0.044598 -0.005000 -0.452809
v 0.045151 0.424113 -0.458425
v 0.088766 -0.005000 -0.446257
v 0.089867 0.424113 -0.451792
v 0.132080 -0.005000 -0.435408
v 0.133718 0.424113 -0.440808
v 0.174121 -0.005000 -0.420365
v 0.176281 0.424113 -0.425579
v 0.214486 -0.005000 -0.401274
v 0.217146 0.424113 -0.406251
v 0.252784 -0.005000 -0.378319
v 0.255920 0.424113 -0.383011
v 0.288649 -0.005000 -0.351720
v 0.292229 0.424113 -0.356082
v 0.321734 -0.005000 -0.321734
v 0.325724 0.424113 -0.325724
v 0.351720 -0.005000 -0.288649
v 0.356082 0.424113 -0.292229
v 0.378319 -0.005000 -0.252784
v 0.383011 0.424113 -0.255920
v 0.401274 -0.005000 -0.214485
v 0.406251 0.424113 -0.217146
v 0.420365 -0.005000 -0.174121
v 0.425579 0.424113 -0.176281
v 0.435408 -0.005000 -0.132079
v 0.440808 0.424113 -0.133718
v 0.446257 -0.005000 -0.088766
v 0.451793 0.424113 -0.089867
v 0.452809 -0.005000 -0.044598
v 0.458425 0.424113 -0.045151
v 0.455000 -0.005000 0.000000
v 0.460644 0.424113 0.000000
v 0.452809 -0.005000 0.044598
v 0.458425 0.424113 0.045151
v 0.446257 -0.005000 0.088766
v 0.451793 0.424113 0.089867
v 0.435408 -0.005000 0.132080
v 0.440808 0.424113 0.133718
v 0.420365 -0.005000 0.174121
v 0.425579 0.424113 0.176281
v 0.401274 -0.005000 0.214486
v 0.406251 0.424113 0.217146
v 0.378319 -0.005000 0.252784
v 0.383011 0.424113 0.255920
v 0.351720 -0.005000 0.288649
v 0.356082 0.424113 0.292229
v 0.321734 -0.005000 0.321734
v 0.325724 0.424113 0.325724
v 0.288649 -0.005000 0.351720
v 0.292229 0.424113 0.356082
v 0.252784 -0.005000 0.378319
v 0.255920 0.424113 0.383011
v 0.214486 -0.005000 0.401274
v 0.217146 0.424113 0.406251
v 0.174121 -0.005000 0.420365
v 0.176281 0.424113 0.425579
v 0.132080 -0.005000 0.435408
v 0.133718 0.424113 0.440809
v 0.088766 -0.005000 0.446257
v 0.089867 0.424113 0.451793
v 0.044598 -0.005000 0.452809
v 0.045151 0.424113 0.458426
v 0.000000 -0.005000 0.455000
v 0.000000 0.424113 0.460644
v -0.044598 -0.005000 0.452809
v -0.045151 0.424113 0.458426
v -0.088766 -0.005000 0.446257
v -0.089867 0.424113 0.451793
v -0.132080 -0.005000 0.435408
v -0.133718 0.424113 0.440809
v -0.174121 -0.005000 0.420365
v -0.176281 0.424113 0.425579
v -0.214486 -0.005000 0.401274
v -0.217146 0.424113 0.406251
v -0.252784 -0.005000 0.378319
v -0.255920 0.424113 0.383011
v -0.288649 -0.005000 0.351720
v -0.292229 0.424113 0.356082
v -0.321734 -0.005000 0.321734
v -0.325724 0.424113 0.325724
v -0.351720 -0.005000 0.288649
v -0.356082 0.424113 0.292229
v -0.378319 -0.005000 0.252784
v -0.383011 0.424113 0.255920
v -0.401274 -0.005000 0.214486
v -0.406251 0.424113 0.217146
v -0.420365 -0.005000 0.174121
v -0.425579 0.424113 0.176281
v -0.435408 -0.005000 0.132080
v -0.440808 0.424113 0.133718
v -0.446257 -0.005000 0.088766
v -0.451793 0.424113 0.089867
v -0.452809 -0.005000 0.044598
v -0.458425 0.424113 0.045151
v -0.455000 -0.005000 0.000000
v -0.460644 0.424113 0.000000
v -0.452809 -0.005000 -0.044598
v -0.458425 0.424113 -0.045151
v -0.446257 -0.005000 -0.088766
v -0.451793 0.424113 -0.089867
v -0.435408 -0.005000 -0.132079
v -0.440808 0.424113 -0.133718
v -0.420365 -0.005000 -0.174121
v -0.425579 0.424113 -0.176281
v -0.401274 -0.005000 -0.214485
v -0.406251 0.424113 -0.217146
v -0.378319 -0.005000 -0.252784
v -0.383011 0.424113 -0.255920
v -0.351720 -0.005000 -0.288649
v -0.356082 0.424113 -0.292229
v -0.321734 -0.005000 -0.321734
v -0.325724 0.424113 -0.325724
v -0.288649 -0.005000 -0.351720
v -0.292229 0.424113 -0.356082
v -0.252784 -0.005000 -0.378319
v -0.255920 0.424113 -0.383011
v -0.214486 -0.005000 -0.401274
v -0.217146 0.424113 -0.406251
v -0.174121 -0.005000 -0.420365
v -0.176281 0.424113 -0.425579
v -0.132080 -0.005000 -0.435408
v -0.133718 0.424113 -0.440808
v -0.088766 -0.005000 -0.446257
v -0.089867 0.424113 -0.451792
v -0.044598 -0.005000 -0.452809
v -0.045151 0.424113 -0.458425
vn -0.0000 -0.5430 -0.8397
vn -0.0000 0.5430 -0.8397
vn 0.0823 -0.5430 -0.8357
vn 0.0823 0.5430 -0.8357
vn 0.1638 -0.5430 -0.8236
vn 0.1638 0.5430 -0.8236
vn 0.2438 -0.5430 -0.8036
vn 0.2438 0.5430 -0.8036
vn 0.3214 -0.5430 -0.7758
vn 0.3214 0.5430 -0.7758
vn 0.3959 -0.5430 -0.7406
vn 0.3958 0.5430 -0.7406
vn 0.4665 -0.5430 -0.6982
vn 0.4665 0.5430 -0.6982
vn 0.5327 -0.5430 -0.6491
vn 0.5327 0.5430 -0.6491
vn 0.5938 -0.5430 -0.5938
vn 0.5938 0.5430 -0.5938
vn 0.6491 -0.5430 -0.5327
vn 0.6491 0.5430 -0.5327
vn 0.6982 -0.5430 -0.4665
vn 0.6982 0.5430 -0.4665
vn 0.7406 -0.5430 -0.3959
vn 0.7406 0.5430 -0.3959
vn 0.7758 -0.5430 -0.3214
vn 0.7758 0.5430 -0.3214
vn 0.8036 -0.5430 -0.2438
vn 0.8036 0.5430 -0.2438
vn 0.8236 -0.5430 -0.1638
vn 0.8236 0.5430 -0.1638
vn 0.8357 -0.5430 -0.0823
vn 0.8357 0.5430 -0.0823
vn 0.8397 -0.5430 -0.0000
vn 0.8397 0.5430 -0.0000
vn 0.8357 -0.5430 0.0823
vn 0.8357 0.5430 0.0823
vn 0.8236 -0.5430 0.1638
vn 0.8236 0.5430 0.1638
vn 0.8036 -0.5430 0.2438
vn 0.8036 0.5430 0.2438
vn 0.7758 -0.5430 0.3214
vn 0.7758 0.5430 0.3214
vn 0.7406 -0.5430 0.3959
vn 0.7406 0.5430 0.3959
vn 0.6982 -0.5430 0.4665
vn 0.6982 0.5430 0.4665
vn 0.6491 -0.5430 0.5327
vn 0.6491 0.5430 0.5327
vn 0.5938 -0.5430 0.5938
vn 0.5938 0.5430 0.5938
vn 0.5327 -0.5430 0.6491
vn 0.5327 0.5430 0.6491
vn 0.4665 -0.5430 0.6982
vn 0.4665 0.5430 0.6982
vn 0.3959 -0.5430 0.7406
vn 0.3959 0.5430 0.7406
vn 0.3214 -0.5430 0.7758
vn 0.3214 0.5430 0.7758
vn 0.2438 -0.5430 0.8036
vn 0.2438 0.5430 0.8036
vn 0.1638 -0.5430 0.8236
vn 0.1638 0.5430 0.8236
vn 0.0823 -0.5430 0.8357
vn 0.0823 0.5430 0.8357
vn -0.0000 -0.5430 0.8397
vn -0.0000 0.5430 0.8397
vn -0.0823 -0.5430 0.8357
vn -0.0823 0.5430 0.8357
vn -0.1638 -0.5430 0.8236
vn -0.1638 0.5430 0.8236
vn -0.2438 -0.5430 0.8036
vn -0.2438 0.5430 0.8036
vn -0.3214 -0.5430 0.7758
vn -0.3214 0.5430 0.7758
vn -0.3959 -0.5430 0.7406
vn -0.3958 0.5430 0.7406
vn -0.4665 -0.5430 0.6982
vn -0.4665 0.5430 0.6982
vn -0.5327 -0.5430 0.6491
vn -0.5327 0.5430 0.6491
vn -0.5938 -0.5430 0.5938
vn -0.5938 0.5430 0.5938
vn -0.6491 -0.5430 0.5327
vn -0.6491 0.5430 0.5327
vn -0.6982 -0.5430 0.4665
vn -0.6982 0.5430 0.4665
vn -0.7406 -0.5430 0.3959
vn -0.7406 0.5430 0.3959
vn -0.7758 -0.5430 0.3214
vn -0.7758 0.5430 0.3214
vn -0.8036 -0.5430 0.2438
vn -0.8036 0.5430 0.2438
vn -0.8236 -0.5430 0.1638
vn -0.8236 0.5430 0.1638
vn -0.8357 -0.5430 0.0823
vn -0.8357 0.5430 0.0823
vn -0.8397 -0.5430 -0.0000
vn -0.8397 0.5430 -0.0000
vn -0.8357 -0.5430 -0.0823
vn -0.8357 0.5430 -0.0823
vn -0.8236 -0.5430 -0.1638
vn -0.8236 0.5430 -0.1638
vn -0.8036 -0.5430 -0.2438
vn -0.8036 0.5430 -0.2438
vn -0.7758 -0.5430 -0.3214
vn -0.7758 0.5430 -0.3214
vn -0.7406 -0.5430 -0.3959
vn -0.7406 0.5430 -0.3959
vn -0.6982 -0.5430 -0.4665
vn -0.6982 0.5430 -0.4665
vn -0.6491 -0.5430 -0.5327
vn -0.6491 0.5430 -0.5327
vn -0.5938 -0.5430 -0.5938
vn -0.5938 0.5430 -0.5938
vn -0.5327 -0.5430 -0.6491
vn -0.5327 0.5430 -0.6491
vn -0.4665 -0.5430 -0.6982
vn -0.4665 0.5430 -0.6982
vn -0.3959 -0.5430 -0.7406
vn -0.3959 0.5430 -0.7406
vn -0.3214 -0.5430 -0.7758
vn -0.3214 0.5430 -0.7758
vn -0.2438 -0.5430 -0.8036
vn -0.2438 0.5430 -0.8036
vn -0.1638 -0.5430 -0.8236
vn -0.1638 0.5430 -0.8236
vn -0.0823 -0.5430 -0.8357
vn -0.0823 0.5430 -0.8357
vn -0.0000 -0.5594 0.8289
vn -0.0000 -0.5354 0.8446
vn -0.0812 -0.5594 0.8249
vn -0.0828 -0.5354 0.8405
vn -0.1617 -0.5594 0.8130
vn -0.1648 -0.5354 0.8283
vn -0.2406 -0.5594 0.7932
vn -0.2452 -0.5354 0.8082
vn -0.3172 -0.5594 0.7658
vn -0.3232 -0.5354 0.7803
vn -0.3907 -0.5594 0.7310
vn -0.3981 -0.5354 0.7448
vn -0.4605 -0.5594 0.6892
vn -0.4692 -0.5354 0.7022
vn -0.5259 -0.5594 0.6408
vn -0.5358 -0.5354 0.6529
vn -0.5861 -0.5594 0.5861
vn -0.5972 -0.5354 0.5972
vn -0.6407 -0.5594 0.5258
vn -0.6529 -0.5354 0.5358
vn -0.6892 -0.5594 0.4605
vn -0.7022 -0.5354 0.4692
vn -0.7310 -0.5594 0.3907
vn -0.7448 -0.5354 0.3981
vn -0.7658 -0.5594 0.3172
vn -0.7803 -0.5354 0.3232
vn -0.7932 -0.5594 0.2406
vn -0.8082 -0.5354 0.2452
vn -0.8130 -0.5594 0.1617
vn -0.8283 -0.5354 0.1648
vn -0.8249 -0.5594 0.0812
vn -0.8405 -0.5354 0.0828
vn -0.8289 -0.5594 -0.0000
vn -0.8446 -0.5354 -0.0000
vn -0.8249 -0.5594 -0.0812
vn -0.8405 -0.5354 -0.0828
vn -0.8130 -0.5594 -0.1617
vn -0.8283 -0.5354 -0.1648
vn -0.7932 -0.5594 -0.2406
vn -0.8082 -0.5354 -0.2452
vn -0.7658 -0.5594 -0.3172
vn -0.7803 -0.5354 -0.3232
vn -0.7310 -0.5594 -0.3907
vn -0.7448 -0.5354 -0.3981
vn -0.6892 -0.5594 -0.4605
vn -0.7022 -0.5354 -0.4692
vn -0.6408 -0.5594 -0.5259
vn -0.6529 -0.5354 -0.5358
vn -0.5861 -0.5594 -0.5861
vn -0.5972 -0.5354 -0.5972
vn -0.5258 -0.5594 -0.6407
vn -0.5358 -0.5354 -0.6529
vn -0.4605 -0.5594 -0.6892
vn -0.4692 -0.5354 -0.7022
vn -0.3907 -0.5594 -0.7310
vn -0.3981 -0.5354 -0.7448
vn -0.3172 -0.5594 -0.7658
vn -0.3232 -0.5354 -0.7803
vn -0.2406 -0.5594 -0.7932
vn -0.2452 -0.5354 -0.8082
vn -0.1617 -0.5594 -0.8130
vn -0.1648 -0.5354 -0.8283
vn -0.0812 -0.5594 -0.8249
vn -0.0828 -0.5354 -0.8405
vn -0.0000 -0.5594 -0.8289
vn -0.0000 -0.5354 -0.8446
vn 0.0812 -0.5594 -0.8249
vn 0.0828 -0.5354 -0.8405
vn 0.1617 -0.5594 -0.8130
vn 0.1648 -0.5354 -0.8283
vn 0.2406 -0.5594 -0.7932
vn 0.2452 -0.5354 -0.8082
vn 0.3172 -0.5594 -0.7658
vn 0.3232 -0.5354 -0.7803
vn 0.3907 -0.5594 -0.7310
vn 0.3981 -0.5354 -0.7448
vn 0.4605 -0.5594 -0.6892
vn 0.4692 -0.5354 -0.7022
vn 0.5259 -0.5594 -0.6408
vn 0.5358 -0.5354 -0.6529
vn 0.5861 -0.5594 -0.5861
vn 0.5972 -0.5354 -0.5972
vn 0.6407 -0.5594 -0.5258
vn 0.6529 -0.5354 -0.5358
vn 0.6892 -0.5594 -0.4605
vn 0.7022 -0.5354 -0.4692
vn 0.7310 -0.5594 -0.3907
vn 0.7448 -0.5354 -0.3981
vn 0.7658 -0.5594 -0.3172
vn 0.7803 -0.5354 -0.3232
vn 0.7932 -0.5594 -0.2406
vn 0.8082 -0.5354 -0.2452
vn 0.8130 -0.5594 -0.1617
vn 0.8283 -0.5354 -0.1648
vn 0.8249 -0.5594 -0.0812
vn 0.8405 -0.5354 -0.0828
vn 0.8289 -0.5594 -0.0000
vn 0.8446 -0.5354 -0.0000
vn 0.8249 -0.5594 0.0812
vn 0.8405 -0.5354 0.0828
vn 0.8130 -0.5594 0.1617
vn 0.8283 -0.5354 0.1648
vn 0.7932 -0.5594 0.2406
vn 0.8082 -0.5354 0.2452
vn 0.7658 -0.5594 0.3172
vn 0.7803 -0.5354 0.3232
vn 0.7310 -0.5594 0.3907
vn 0.7448 -0.5354 0.3981
vn 0.6892 -0.5594 0.4605
vn 0.7022 -0.5354 0.4692
vn 0.6408 -0.5594 0.5259
vn 0.6529 -0.5354 0.5358
vn 0.5861 -0.5594 0.5861
vn 0.5972 -0.5354 0.5972
vn 0.5258 -0.5594 0.6407
vn 0.5358 -0.5354 0.6529
vn 0.4605 -0.5594 0.6892
vn 0.4692 -0.5354 0.7022
vn 0.3907 -0.5594 0.7310
vn 0.3981 -0.5354 0.7448
vn 0.3172 -0.5594 0.7658
vn 0.3232 -0.5354 0.7803
vn 0.2406 -0.5594 0.7932
vn 0.2452 -0.5354 0.8082
vn 0.1617 -0.5594 0.8130
vn 0.1648 -0.5354 0.8283
vn 0.0812 -0.5594 0.8249
vn 0.0828 -0.5354 0.8405
vt 1.000000 1.000000
vt 0.984375 0.500000
vt 1.000000 0.500000
vt 0.984375 1.000000
vt 0.968750 0.500000
vt 0.968750 1.000000
vt 0.953125 0.500000
vt 0.953125 1.000000
vt 0.937500 0.500000
vt 0.937500 1.000000
vt 0.921875 0.500000
vt 0.921875 1.000000
vt 0.906250 0.500000
vt 0.906250 1.000000
vt 0.890625 0.500000
vt 0.890625 1.000000
vt 0.875000 0.500000
vt 0.875000 1.000000
vt 0.859375 0.500000
vt 0.859375 1.000000
vt 0.843750 0.500000
vt 0.843750 1.000000
vt 0.828125 0.500000
vt 0.828125 1.000000
vt 0.812500 0.500000
vt 0.812500 1.000000
vt 0.796875 0.500000
vt 0.796875 1.000000
vt 0.781250 0.500000
vt 0.781250 1.000000
vt 0.765625 0.500000
vt 0.765625 1.000000
vt 0.750000 0.500000
vt 0.750000 1.000000
vt 0.734375 0.500000
vt 0.734375 1.000000
vt 0.718750 0.500000
vt 0.718750 1.000000
vt 0.703125 0.500000
vt 0.703125 1.000000
vt 0.687500 0.500000
vt 0.687500 1.000000
vt 0.671875 0.500000
vt 0.671875 1.000000
vt 0.656250 0.500000
vt 0.656250 1.000000
vt 0.640625 0.500000
vt 0.640625 1.000000
vt 0.625000 0.500000
vt 0.625000 1.000000
vt 0.609375 0.500000
vt 0.609375 1.000000
vt 0.593750 0.500000
vt 0.593750 1.000000
vt 0.578125 0.500000
vt 0.578125 1.000000
vt 0.562500 0.500000
vt 0.562500 1.000000
vt 0.546875 0.500000
vt 0.546875 1.000000
vt 0.531250 0.500000
vt 0.531250 1.000000
vt 0.515625 0.500000
vt 0.515625 1.000000
vt 0.500000 0.500000
vt 0.500000 1.000000
vt 0.484375 0.500000
vt 0.484375 1.000000
vt 0.468750 0.500000
vt 0.468750 1.000000
vt 0.453125 0.500000
vt 0.453125 1.000000
vt 0.437500 0.500000
vt 0.437500 1.000000
vt 0.421875 0.500000
vt 0.421875 1.000000
vt 0.406250 0.500000
vt 0.406250 1.000000
vt 0.390625 0.500000
vt 0.390625 1.000000
vt 0.375000 0.500000
vt 0.375000 1.000000
vt 0.359375 0.500000
vt 0.359375 1.000000
vt 0.343750 0.500000
vt 0.343750 1.000000
vt 0.328125 0.500000
vt 0.328125 1.000000
vt 0.312500 0.500000
vt 0.312500 1.000000
vt 0.296875 0.500000
vt 0.296875 1.000000
vt 0.281250 0.500000
vt 0.281250 1.000000
vt 0.265625 0.500000
vt 0.265625 1.000000
vt 0.250000 0.500000
vt 0.250000 1.000000
vt 0.234375 0.500000
vt 0.234375 1.000000
vt 0.218750 0.500000
vt 0.218750 1.000000
vt 0.203125 0.500000
vt 0.203125 1.000000
vt 0.187500 0.500000
vt 0.187500 1.000000
vt 0.171875 0.500000
vt 0.171875 1.000000
vt 0.156250 0.500000
vt 0.156250 1.000000
vt 0.140625 0.500000
vt 0.140625 1.000000
vt 0.125000 0.500000
vt 0.125000 1.000000
vt 0.109375 0.500000
vt 0.109375 1.000000
vt 0.093750 0.500000
vt 0.093750 1.000000
vt 0.078125 0.500000
vt 0.078125 1.000000
vt 0.062500 0.500000
vt 0.062500 1.000000
vt 0.046875 0.500000
vt 0.046875 1.000000
vt 0.031250 0.500000
vt 0.203178 0.014612
vt 0.485388 0.203178
vt 0.296822 0.485388
vt 0.031250 1.000000
vt 0.015625 0.500000
vt 0.015625 1.000000
vt 0.000000 0.500000
vt 0.250000 0.010000
vt 0.010000 0.250000
vt 0.250000 0.490000
vt 0.273524 0.488844
vt 0.226476 0.488844
vt 0.203178 0.485388
vt 0.180332 0.479666
vt 0.158156 0.471731
vt 0.136865 0.461661
vt 0.116663 0.449553
vt 0.097746 0.435522
vt 0.080294 0.419706
vt 0.064478 0.402254
vt 0.050447 0.383337
vt 0.038339 0.363135
vt 0.028269 0.341844
vt 0.020334 0.319668
vt 0.014612 0.296822
vt 0.011156 0.273524
vt 0.011156 0.226476
vt 0.014612 0.203178
vt 0.020334 0.180332
vt 0.028269 0.158156
vt 0.038339 0.136865
vt 0.050447 0.116663
vt 0.064478 0.097746
vt 0.080294 0.080294
vt 0.097746 0.064478
vt 0.116663 0.050447
vt 0.136865 0.038339
vt 0.158156 0.028269
vt 0.180332 0.020334
vt 0.226476 0.011156
vt 0.273524 0.011156
vt 0.296822 0.014612
vt 0.319668 0.020334
vt 0.341844 0.028269
vt 0.363135 0.038339
vt 0.383337 0.050447
vt 0.402254 0.064478
vt 0.419706 0.080294
vt 0.435522 0.097746
vt 0.449553 0.116663
vt 0.461661 0.136865
vt 0.471731 0.158156
vt 0.479666 0.180332
vt 0.488844 0.226476
vt 0.490000 0.250000
vt 0.488844 0.273524
vt 0.485388 0.296822
vt 0.479666 0.319668
vt 0.471731 0.341844
vt 0.461661 0.363135
vt 0.449553 0.383337
vt 0.435522 0.402254
vt 0.419706 0.419706
vt 0.402254 0.435522
vt 0.383337 0.449553
vt 0.363135 0.461661
vt 0.341844 0.471731
vt 0.319668 0.479666
vt 0.000000 1.000000
s 1
usemtl Nozzle
f 2/1/2 3/2/3 1/3/1
f 4/4/4 5/5/5 3/2/3
f 6/6/6 7/7/7 5/5/5
f 8/8/8 9/9/9 7/7/7
f 10/10/10 11/11/11 9/9/9
f 12/12/12 13/13/13 11/11/11
f 14/14/14 15/15/15 13/13/13
f 16/16/16 17/17/17 15/15/15
f 18/18/18 19/19/19 17/17/17
f 20/20/20 21/21/21 19/19/19
f 22/22/22 23/23/23 21/21/21
f 24/24/24 25/25/25 23/23/23
f 26/26/26 27/27/27 25/25/25
f 28/28/28 29/29/29 27/27/27
f 30/30/30 31/31/31 29/29/29
f 32/32/32 33/33/33 31/31/31
f 34/34/34 35/35/35 33/33/33
f 36/36/36 37/37/37 35/35/35
f 38/38/38 39/39/39 37/37/37
f 40/40/40 41/41/41 39/39/39
f 42/42/42 43/43/43 41/41/41
f 44/44/44 45/45/45 43/43/43
f 46/46/46 47/47/47 45/45/45
f 48/48/48 49/49/49 47/47/47
f 50/50/50 51/51/51 49/49/49
f 52/52/52 53/53/53 51/51/51
f 54/54/54 55/55/55 53/53/53
f 56/56/56 57/57/57 55/55/55
f 58/58/58 59/59/59 57/57/57
f 60/60/60 61/61/61 59/59/59
f 62/62/62 63/63/63 61/61/61
f 64/64/64 65/65/65 63/63/63
f 66/66/66 67/67/67 65/65/65
f 68/68/68 69/69/69 67/67/67
f 70/70/70 71/71/71 69/69/69
f 72/72/72 73/73/73 71/71/71
f 74/74/74 75/75/75 73/73/73
f 76/76/76 77/77/77 75/75/75
f 78/78/78 79/79/79 77/77/77
f 80/80/80 81/81/81 79/79/79
f 82/82/82 83/83/83 81/81/81
f 84/84/84 85/85/85 83/83/83
f 86/86/86 87/87/87 85/85/85
f 88/88/88 89/89/89 87/87/87
f 90/90/90 91/91/91 89/89/89
f 92/92/92 93/93/93 91/91/91
f 94/94/94 95/95/95 93/93/93
f 96/96/96 97/97/97 95/95/95
f 98/98/98 99/99/99 97/97/97
f 100/100/100 101/101/101 99/99/99
f 102/102/102 103/103/103 101/101/101
f 104/104/104 105/105/105 103/103/103
f 106/106/106 107/107/107 105/105/105
f 108/108/108 109/109/109 107/107/107
f 110/110/110 111/111/111 109/109/109
f 112/112/112 113/113/113 111/111/111
f 114/114/114 115/115/115 113/113/113
f 116/116/116 117/117/117 115/115/115
f 118/118/118 119/119/119 117/117/117
f 120/120/120 121/121/121 119/119/119
f 122/122/122 123/123/123 121/121/121
f 124/124/124 125/125/125 123/123/123
f 70/126/70 38/127/38 6/128/6
f 126/129/126 127/130/127 125/125/125
f 128/131/128 1/132/1 127/130/127
f 131/2/131 130/1/130 129/3/129
f 133/5/133 132/4/132 131/2/131
f 135/7/135 134/6/134 133/5/133
f 137/9/137 136/8/136 135/7/135
f 139/11/139 138/10/138 137/9/137
f 141/13/141 140/12/140 139/11/139
f 143/15/143 142/14/142 141/13/141
f 145/17/145 144/16/144 143/15/143
f 147/19/147 146/18/146 145/17/145
f 149/21/149 148/20/148 147/19/147
f 151/23/151 150/22/150 149/21/149
f 153/25/153 152/24/152 151/23/151
f 155/27/155 154/26/154 153/25/153
f 157/29/157 156/28/156 155/27/155
f 159/31/159 158/30/158 157/29/157
f 161/33/161 160/32/160 159/31/159
f 163/35/163 162/34/162 161/33/161
f 165/37/165 164/36/164 163/35/163
f 167/39/167 166/38/166 165/37/165
f 169/41/169 168/40/168 167/39/167
f 171/43/171 170/42/170 169/41/169
f 173/45/173 172/44/172 171/43/171
f 175/47/175 174/46/174 173/45/173
f 177/49/177 176/48/176 175/47/175
f 179/51/179 178/50/178 177/49/177
f 181/53/181 180/52/180 179/51/179
f 183/55/183 182/54/182 181/53/181
f 185/57/185 184/56/184 183/55/183
f 187/59/187 186/58/186 185/57/185
f 189/61/189 188/60/188 187/59/187
f 191/63/191 190/62/190 189/61/189
f 193/65/193 192/64/192 191/63/191
f 195/67/195 194/66/194 193/65/193
f 197/69/197 196/68/196 195/67/195
f 199/71/199 198/70/198 197/69/197
f 201/73/201 200/72/200 199/71/199
f 203/75/203 202/74/202 201/73/201
f 205/77/205 204/76/204 203/75/203
f 207/79/207 206/78/206 205/77/205
f 209/81/209 208/80/208 207/79/207
f 211/83/211 210/82/210 209/81/209
f 213/85/213 212/84/212 211/83/211
f 215/87/215 214/86/214 213/85/213
f 217/89/217 216/88/216 215/87/215
f 219/91/219 218/90/218 217/89/217
f 221/93/221 220/92/220 219/91/219
f 223/95/223 222/94/222 221/93/221
f 225/97/225 224/96/224 223/95/223
f 227/99/227 226/98/226 225/97/225
f 229/101/229 228/100/228 227/99/227
f 231/103/231 230/102/230 229/101/229
f 233/105/233 232/104/232 231/103/231
f 235/107/235 234/106/234 233/105/233
f 237/109/237 236/108/236 235/107/235
f 239/111/239 238/110/238 237/109/237
f 241/113/241 240/112/240 239/111/239
f 243/115/243 242/114/242 241/113/241
f 245/117/245 244/116/244 243/115/243
f 247/119/247 246/118/246 245/117/245
f 249/121/249 248/120/248 247/119/247
f 251/123/251 250/122/250 249/121/249
f 253/125/253 252/124/252 251/123/251
f 194/133/194 226/134/226 130/135/130
f 255/130/255 254/129/254 253/125/253
f 129/132/129 256/131/256 255/130/255
f 3/2/3 129/3/129 1/3/1
f 3/2/3 133/5/133 131/2/131
f 7/7/7 133/5/133 5/5/5
f 9/9/9 135/7/135 7/7/7
f 11/11/11 137/9/137 9/9/9
f 13/13/13 139/11/139 11/11/11
f 13/13/13 143/15/143 141/13/141
f 17/17/17 143/15/143 15/15/15
f 19/19/19 145/17/145 17/17/17
f 21/21/21 147/19/147 19/19/19
f 23/23/23 149/21/149 21/21/21
f 23/23/23 153/25/153 151/23/151
f 27/27/27 153/25/153 25/25/25
f 29/29/29 155/27/155 27/27/27
f 31/31/31 157/29/157 29/29/29
f 33/33/33 159/31/159 31/31/31
f 35/35/35 161/33/161 33/33/33
f 37/37/37 163/35/163 35/35/35
f 37/37/37 167/39/167 165/37/165
f 39/39/39 169/41/169 167/39/167
f 43/43/43 169/41/169 41/41/41
f 45/45/45 171/43/171 43/43/43
f 45/45/45 175/47/175 173/45/173
f 49/49/49 175/47/175 47/47/47
f 51/51/51 177/49/177 49/49/49
f 53/53/53 179/51/179 51/51/51
f 55/55/55 181/53/181 53/53/53
f 55/55/55 185/57/185 183/55/183
f 59/59/59 185/57/185 57/57/57
f 61/61/61 187/59/187 59/59/59
f 63/63/63 189/61/189 61/61/61
f 65/65/65 191/63/191 63/63/63
f 67/67/67 193/65/193 65/65/65
f 67/67/67 197/69/197 195/67/195
f 71/71/71 197/69/197 69/69/69
f 73/73/73 199/71/199 71/71/71
f 75/75/75 201/73/201 73/73/73
f 77/77/77 203/75/203 75/75/75
f 77/77/77 207/79/207 205/77/205
f 81/81/81 207/79/207 79/79/79
f 83/83/83 209/81/209 81/81/81
f 85/85/85 211/83/211 83/83/83
f 87/87/87 213/85/213 85/85/85
f 87/87/87 217/89/217 215/87/215
f 91/91/91 217/89/217 89/89/89
f 93/93/93 219/91/219 91/91/91
f 95/95/95 221/93/221 93/93/93
f 97/97/97 223/95/223 95/95/95
f 99/99/99 225/97/225 97/97/97
f 101/101/101 227/99/227 99/99/99
f 101/101/101 231/103/231 229/101/229
f 103/103/103 233/105/233 231/103/231
f 107/107/107 233/105/233 105/105/105
f 109/109/109 235/107/235 107/107/107
f 109/109/109 239/111/239 237/109/237
f 113/113/113 239/111/239 111/111/111
f 115/115/115 241/113/241 113/113/113
f 117/117/117 243/115/243 115/115/115
f 119/119/119 245/117/245 117/117/117
f 119/119/119 249/121/249 247/119/247
f 123/123/123 249/121/249 121/121/121
f 125/125/125 251/123/251 123/123/123
f 127/130/127 253/125/253 125/125/125
f 1/132/1 255/130/255 127/130/127
f 2/1/2 4/4/4 3/2/3
f 4/4/4 6/6/6 5/5/5
f 6/6/6 8/8/8 7/7/7
f 8/8/8 10/10/10 9/9/9
f 10/10/10 12/12/12 11/11/11
f 12/12/12 14/14/14 13/13/13
f 14/14/14 16/16/16 15/15/15
f 16/16/16 18/18/18 17/17/17
f 18/18/18 20/20/20 19/19/19
f 20/20/20 22/22/22 21/21/21
f 22/22/22 24/24/24 23/23/23
f 24/24/24 26/26/26 25/25/25
f 26/26/26 28/28/28 27/27/27
f 28/28/28 30/30/30 29/29/29
f 30/30/30 32/32/32 31/31/31
f 32/32/32 34/34/34 33/33/33
f 34/34/34 36/36/36 35/35/35
f 36/36/36 38/38/38 37/37/37
f 38/38/38 40/40/40 39/39/39
f 40/40/40 42/42/42 41/41/41
f 42/42/42 44/44/44 43/43/43
f 44/44/44 46/46/46 45/45/45
f 46/46/46 48/48/48 47/47/47
f 48/48/48 50/50/50 49/49/49
f 50/50/50 52/52/52 51/51/51
f 52/52/52 54/54/54 53/53/53
f 54/54/54 56/56/56 55/55/55
f 56/56/56 58/58/58 57/57/57
f 58/58/58 60/60/60 59/59/59
f 60/60/60 62/62/62 61/61/61
f 62/62/62 64/64/64 63/63/63
f 64/64/64 66/66/66 65/65/65
f 66/66/66 68/68/68 67/67/67
f 68/68/68 70/70/70 69/69/69
f 70/70/70 72/72/72 71/71/71
f 72/72/72 74/74/74 73/73/73
f 74/74/74 76/76/76 75/75/75
f 76/76/76 78/78/78 77/77/77
f 78/78/78 80/80/80 79/79/79
f 80/80/80 82/82/82 81/81/81
f 82/82/82 84/84/84 83/83/83
f 84/84/84 86/86/86 85/85/85
f 86/86/86 88/88/88 87/87/87
f 88/88/88 90/90/90 89/89/89
f 90/90/90 92/92/92 91/91/91
f 92/92/92 94/94/94 93/93/93
f 94/94/94 96/96/96 95/95/95
f 96/96/96 98/98/98 97/97/97
f 98/98/98 100/100/100 99/99/99
f 100/100/100 102/102/102 101/101/101
f 102/102/102 104/104/104 103/103/103
f 104/104/104 106/106/106 105/105/105
f 106/106/106 108/108/108 107/107/107
f 108/108/108 110/110/110 109/109/109
f 110/110/110 112/112/112 111/111/111
f 112/112/112 114/114/114 113/113/113
f 114/114/114 116/116/116 115/115/115
f 116/116/116 118/118/118 117/117/117
f 118/118/118 120/120/120 119/119/119
f 120/120/120 122/122/122 121/121/121
f 122/122/122 124/124/124 123/123/123
f 124/124/124 126/129/126 125/125/125
f 6/128/6 4/136/4 2/135/2
f 2/135/2 128/137/128 126/138/126
f 126/138/126 124/139/124 122/140/122
f 122/140/122 120/141/120 118/142/118
f 118/142/118 116/143/116 114/144/114
f 114/144/114 112/145/112 110/146/110
f 110/146/110 108/147/108 106/148/106
f 106/148/106 104/149/104 102/150/102
f 102/150/102 100/151/100 98/134/98
f 98/134/98 96/152/96 94/153/94
f 94/153/94 92/154/92 90/155/90
f 90/155/90 88/156/88 86/157/86
f 86/157/86 84/158/84 82/159/82
f 82/159/82 80/160/80 78/161/78
f 78/161/78 76/162/76 74/163/74
f 74/163/74 72/164/72 70/126/70
f 70/126/70 68/165/68 66/133/66
f 66/133/66 64/166/64 62/167/62
f 62/167/62 60/168/60 58/169/58
f 58/169/58 56/170/56 54/171/54
f 54/171/54 52/172/52 50/173/50
f 50/173/50 48/174/48 46/175/46
f 46/175/46 44/176/44 42/177/42
f 42/177/42 40/178/40 38/127/38
f 38/127/38 36/179/36 34/180/34
f 34/180/34 32/181/32 30/182/30
f 30/182/30 28/183/28 26/184/26
f 26/184/26 24/185/24 22/186/22
f 22/186/22 20/187/20 18/188/18
f 18/188/18 16/189/16 14/190/14
f 14/190/14 12/191/12 10/192/10
f 10/192/10 8/193/8 6/128/6
f 6/128/6 2/135/2 126/138/126
f 126/138/126 122/140/122 118/142/118
f 118/142/118 114/144/114 110/146/110
f 110/146/110 106/148/106 102/150/102
f 102/150/102 98/134/98 94/153/94
f 94/153/94 90/155/90 86/157/86
f 86/157/86 82/159/82 78/161/78
f 78/161/78 74/163/74 70/126/70
f 70/126/70 66/133/66 62/167/62
f 62/167/62 58/169/58 54/171/54
f 54/171/54 50/173/50 46/175/46
f 46/175/46 42/177/42 38/127/38
f 38/127/38 34/180/34 30/182/30
f 30/182/30 26/184/26 22/186/22
f 22/186/22 18/188/18 14/190/14
f 14/190/14 10/192/10 6/128/6
f 6/128/6 126/138/126 118/142/118
f 118/142/118 110/146/110 102/150/102
f 102/150/102 94/153/94 86/157/86
f 86/157/86 78/161/78 70/126/70
f 70/126/70 62/167/62 54/171/54
f 54/171/54 46/175/46 38/127/38
f 38/127/38 30/182/30 22/186/22
f 22/186/22 14/190/14 6/128/6
f 6/128/6 118/142/118 102/150/102
f 102/150/102 86/157/86 70/126/70
f 70/126/70 54/171/54 38/127/38
f 38/127/38 22/186/22 6/128/6
f 6/128/6 102/150/102 70/126/70
f 126/129/126 128/131/128 127/130/127
f 128/131/128 2/194/2 1/132/1
f 131/2/131 132/4/132 130/1/130
f 133/5/133 134/6/134 132/4/132
f 135/7/135 136/8/136 134/6/134
f 137/9/137 138/10/138 136/8/136
f 139/11/139 140/12/140 138/10/138
f 141/13/141 142/14/142 140/12/140
f 143/15/143 144/16/144 142/14/142
f 145/17/145 146/18/146 144/16/144
f 147/19/147 148/20/148 146/18/146
f 149/21/149 150/22/150 148/20/148
f 151/23/151 152/24/152 150/22/150
f 153/25/153 154/26/154 152/24/152
f 155/27/155 156/28/156 154/26/154
f 157/29/157 158/30/158 156/28/156
f 159/31/159 160/32/160 158/30/158
f 161/33/161 162/34/162 160/32/160
f 163/35/163 164/36/164 162/34/162
f 165/37/165 166/38/166 164/36/164
f 167/39/167 168/40/168 166/38/166
f 169/41/169 170/42/170 168/40/168
f 171/43/171 172/44/172 170/42/170
f 173/45/173 174/46/174 172/44/172
f 175/47/175 176/48/176 174/46/174
f 177/49/177 178/50/178 176/48/176
f 179/51/179 180/52/180 178/50/178
f 181/53/181 182/54/182 180/52/180
f 183/55/183 184/56/184 182/54/182
f 185/57/185 186/58/186 184/56/184
f 187/59/187 188/60/188 186/58/186
f 189/61/189 190/62/190 188/60/188
f 191/63/191 192/64/192 190/62/190
f 193/65/193 194/66/194 192/64/192
f 195/67/195 196/68/196 194/66/194
f 197/69/197 198/70/198 196/68/196
f 199/71/199 200/72/200 198/70/198
f 201/73/201 202/74/202 200/72/200
f 203/75/203 204/76/204 202/74/202
f 205/77/205 206/78/206 204/76/204
f 207/79/207 208/80/208 206/78/206
f 209/81/209 210/82/210 208/80/208
f 211/83/211 212/84/212 210/82/210
f 213/85/213 214/86/214 212/84/212
f 215/87/215 216/88/216 214/86/214
f 217/89/217 218/90/218 216/88/216
f 219/91/219 220/92/220 218/90/218
f 221/93/221 222/94/222 220/92/220
f 223/95/223 224/96/224 222/94/222
f 225/97/225 226/98/226 224/96/224
f 227/99/227 228/100/228 226/98/226
f 229/101/229 230/102/230 228/100/228
f 231/103/231 232/104/232 230/102/230
f 233/105/233 234/106/234 232/104/232
f 235/107/235 236/108/236 234/106/234
f 237/109/237 238/110/238 236/108/236
f 239/111/239 240/112/240 238/110/238
f 241/113/241 242/114/242 240/112/240
f 243/115/243 244/116/244 242/114/242
f 245/117/245 246/118/246 244/116/244
f 247/119/247 248/120/248 246/118/246
f 249/121/249 250/122/250 248/120/248
f 251/123/251 252/124/252 250/122/250
f 253/125/253 254/129/254 252/124/252
f 130/135/130 132/136/132 134/128/134
f 134/128/134 136/193/136 138/192/138
f 138/192/138 140/191/140 142/190/142
f 142/190/142 144/189/144 146/188/146
f 146/188/146 148/187/148 150/186/150
f 150/186/150 152/185/152 154/184/154
f 154/184/154 156/183/156 158/182/158
f 158/182/158 160/181/160 162/180/162
f 162/180/162 164/179/164 166/127/166
f 166/127/166 168/178/168 170/177/170
f 170/177/170 172/176/172 174/175/174
f 174/175/174 176/174/176 178/173/178
f 178/173/178 180/172/180 182/171/182
f 182/171/182 184/170/184 186/169/186
f 186/169/186 188/168/188 190/167/190
f 190/167/190 192/166/192 194/133/194
f 194/133/194 196/165/196 198/126/198
f 198/126/198 200/164/200 202/163/202
f 202/163/202 204/162/204 206/161/206
f 206/161/206 208/160/208 210/159/210
f 210/159/210 212/158/212 214/157/214
f 214/157/214 216/156/216 218/155/218
f 218/155/218 220/154/220 222/153/222
f 222/153/222 224/152/224 226/134/226
f 226/134/226 228/151/228 230/150/230
f 230/150/230 232/149/232 234/148/234
f 234/148/234 236/147/236 238/146/238
f 238/146/238 240/145/240 242/144/242
f 242/144/242 244/143/244 246/142/246
f 246/142/246 248/141/248 250/140/250
f 250/140/250 252/139/252 254/138/254
f 254/138/254 256/137/256 130/135/130
f 130/135/130 134/128/134 138/192/138
f 138/192/138 142/190/142 146/188/146
f 146/188/146 150/186/150 154/184/154
f 154/184/154 158/182/158 162/180/162
f 162/180/162 166/127/166 170/177/170
f 170/177/170 174/175/174 178/173/178
f 178/173/178 182/171/182 186/169/186
f 186/169/186 190/167/190 194/133/194
f 194/133/194 198/126/198 202/163/202
f 202/163/202 206/161/206 210/159/210
f 210/159/210 214/157/214 218/155/218
f 218/155/218 222/153/222 226/134/226
f 226/134/226 230/150/230 234/148/234
f 234/148/234 238/146/238 242/144/242
f 242/144/242 246/142/246 250/140/250
f 250/140/250 254/138/254 130/135/130
f 130/135/130 138/192/138 146/188/146
f 146/188/146 154/184/154 162/180/162
f 162/180/162 170/177/170 178/173/178
f 178/173/178 186/169/186 194/133/194
f 194/133/194 202/163/202 210/159/210
f 210/159/210 218/155/218 226/134/226
f 226/134/226 234/148/234 242/144/242
f 242/144/242 250/140/250 130/135/130
f 130/135/130 146/188/146 162/180/162
f 162/180/162 178/173/178 194/133/194
f 194/133/194 210/159/210 226/134/226
f 226/134/226 242/144/242 130/135/130
f 130/135/130 162/180/162 194/133/194
f 255/130/255 256/131/256 254/129/254
f 129/132/129 130/194/130 256/131/256
f 3/2/3 131/2/131 129/3/129
f 3/2/3 5/5/5 133/5/133
f 7/7/7 135/7/135 133/5/133
f 9/9/9 137/9/137 135/7/135
f 11/11/11 139/11/139 137/9/137
f 13/13/13 141/13/141 139/11/139
f 13/13/13 15/15/15 143/15/143
f 17/17/17 145/17/145 143/15/143
f 19/19/19 147/19/147 145/17/145
f 21/21/21 149/21/149 147/19/147
f 23/23/23 151/23/151 149/21/149
f 23/23/23 25/25/25 153/25/153
f 27/27/27 155/27/155 153/25/153
f 29/29/29 157/29/157 155/27/155
f 31/31/31 159/31/159 157/29/157
f 33/33/33 161/33/161 159/31/159
f 35/35/35 163/35/163 161/33/161
f 37/37/37 165/37/165 163/35/163
f 37/37/37 39/39/39 167/39/167
f 39/39/39 41/41/41 169/41/169
f 43/43/43 171/43/171 169/41/169
f 45/45/45 173/45/173 171/43/171
f 45/45/45 47/47/47 175/47/175
f 49/49/49 177/49/177 175/47/175
f 51/51/51 179/51/179 177/49/177
f 53/53/53 181/53/181 179/51/179
f 55/55/55 183/55/183 181/53/181
f 55/55/55 57/57/57 185/57/185
f 59/59/59 187/59/187 185/57/185
f 61/61/61 189/61/189 187/59/187
f 63/63/63 191/63/191 189/61/189
f 65/65/65 193/65/193 191/63/191
f 67/67/67 195/67/195 193/65/193
f 67/67/67 69/69/69 197/69/197
f 71/71/71 199/71/199 197/69/197
f 73/73/73 201/73/201 199/71/199
f 75/75/75 203/75/203 201/73/201
f 77/77/77 205/77/205 203/75/203
f 77/77/77 79/79/79 207/79/207
f 81/81/81 209/81/209 207/79/207
f 83/83/83 211/83/211 209/81/209
f 85/85/85 213/85/213 211/83/211
f 87/87/87 215/87/215 213/85/213
f 87/87/87 89/89/89 217/89/217
f 91/91/91 219/91/219 217/89/217
f 93/93/93 221/93/221 219/91/219
f 95/95/95 223/95/223 221/93/221
f 97/97/97 225/97/225 223/95/223
f 99/99/99 227/99/227 225/97/225
f 101/101/101 229/101/229 227/99/227
f 101/101/101 103/103/103 231/103/231
f 103/103/103 105/105/105 233/105/233
f 107/107/107 235/107/235 233/105/233
f 109/109/109 237/109/237 235/107/235
f 109/109/109 111/111/111 239/111/239
f 113/113/113 241/113/241 239/111/239
f 115/115/115 243/115/243 241/113/241
f 117/117/117 245/117/245 243/115/243
f 119/119/119 247/119/247 245/117/245
f 119/119/119 121/121/121 249/121/249
f 123/123/123 251/123/251 249/121/249
f 125/125/125 253/125/253 251/123/251
f 127/130/127 255/130/255 253/125/253
f 1/132/1 129/132/129 255/130/255
